<svg width="61" height="60" viewBox="0 0 61 60" fill="none" xmlns="http://www.w3.org/2000/svg">
<rect x="1.5" y="1" width="58" height="58" rx="29" stroke="#C1272D" stroke-width="2"/>
<g clip-path="url(#clip0_165_2192)">
<path d="M42.5 30C42.5 23.3726 37.1274 18 30.5 18C23.8726 18 18.5 23.3726 18.5 30C18.5 35.9895 22.8882 40.954 28.625 41.8542V33.4688H25.5781V30H28.625V27.3563C28.625 24.3488 30.4166 22.6875 33.1576 22.6875C34.4701 22.6875 35.8438 22.9219 35.8438 22.9219V25.875H34.3306C32.84 25.875 32.375 26.8001 32.375 27.75V30H35.7031L35.1711 33.4688H32.375V41.8542C38.1118 40.954 42.5 35.9895 42.5 30Z" fill="#C1272D"/>
</g>
<defs>
<clipPath id="clip0_165_2192">
<rect width="24" height="24" fill="white" transform="translate(18.5 18)"/>
</clipPath>
</defs>
</svg>
