<svg width="61" height="60" viewBox="0 0 61 60" fill="none" xmlns="http://www.w3.org/2000/svg">
<rect x="1.5" y="1" width="58" height="58" rx="29" stroke="#C1272D" stroke-width="2"/>
<g clip-path="url(#clip0_165_2186)">
<path d="M40.7234 18H20.2719C19.2922 18 18.5 18.7734 18.5 19.7297V40.2656C18.5 41.2219 19.2922 42 20.2719 42H40.7234C41.7031 42 42.5 41.2219 42.5 40.2703V19.7297C42.5 18.7734 41.7031 18 40.7234 18ZM25.6203 38.4516H22.0578V26.9953H25.6203V38.4516ZM23.8391 25.4344C22.6953 25.4344 21.7719 24.5109 21.7719 23.3719C21.7719 22.2328 22.6953 21.3094 23.8391 21.3094C24.9781 21.3094 25.9016 22.2328 25.9016 23.3719C25.9016 24.5062 24.9781 25.4344 23.8391 25.4344ZM38.9516 38.4516H35.3937V32.8828C35.3937 31.5562 35.3703 29.8453 33.5422 29.8453C31.6906 29.8453 31.4094 31.2937 31.4094 32.7891V38.4516H27.8563V26.9953H31.2687V28.5609H31.3156C31.7891 27.6609 32.9516 26.7094 34.6813 26.7094C38.2859 26.7094 38.9516 29.0813 38.9516 32.1656V38.4516Z" fill="#C1272D"/>
</g>
<defs>
<clipPath id="clip0_165_2186">
<rect width="24" height="24" fill="white" transform="translate(18.5 18)"/>
</clipPath>
</defs>
</svg>
