<svg width="61" height="60" viewBox="0 0 61 60" fill="none" xmlns="http://www.w3.org/2000/svg">
<rect x="1.5" y="1" width="58" height="58" rx="29" stroke="#C1272D" stroke-width="2"/>
<g clip-path="url(#clip0_165_2180)">
<path d="M26.0502 39.75C35.1045 39.75 40.0583 32.2467 40.0583 25.7419C40.0583 25.5309 40.0536 25.3153 40.0442 25.1044C41.0079 24.4075 41.8395 23.5443 42.5 22.5553C41.6025 22.9546 40.6496 23.2154 39.6739 23.3287C40.7013 22.7129 41.4705 21.7455 41.8391 20.6058C40.8726 21.1786 39.8156 21.5826 38.7134 21.8006C37.9708 21.0116 36.989 20.4891 35.9197 20.3141C34.8504 20.139 33.7532 20.3211 32.7977 20.8321C31.8423 21.3431 31.0818 22.1547 30.6338 23.1413C30.1859 24.1279 30.0754 25.2346 30.3195 26.2903C28.3625 26.1921 26.4479 25.6837 24.7 24.7981C22.952 23.9125 21.4097 22.6694 20.173 21.1495C19.5444 22.2332 19.3521 23.5156 19.635 24.7361C19.918 25.9565 20.6551 27.0234 21.6964 27.72C20.9146 27.6952 20.15 27.4847 19.4656 27.1059V27.1669C19.4649 28.3041 19.8581 29.4066 20.5783 30.2868C21.2985 31.167 22.3013 31.7706 23.4162 31.995C22.6921 32.1931 21.932 32.222 21.1948 32.0794C21.5095 33.0574 22.1216 33.9129 22.9458 34.5263C23.77 35.1398 24.7651 35.4806 25.7923 35.5012C24.0484 36.8711 21.8942 37.6141 19.6766 37.6106C19.2833 37.61 18.8904 37.5859 18.5 37.5384C20.7529 38.9837 23.3735 39.7514 26.0502 39.75Z" fill="#C1272D"/>
</g>
<defs>
<clipPath id="clip0_165_2180">
<rect width="24" height="24" fill="white" transform="translate(18.5 18)"/>
</clipPath>
</defs>
</svg>
