<svg width="18" height="21" viewBox="0 0 18 21" fill="none" xmlns="http://www.w3.org/2000/svg">
<path d="M10.5 1.27734V5.27734C10.5 5.54256 10.6054 5.79691 10.7929 5.98445C10.9804 6.17199 11.2348 6.27734 11.5 6.27734H15.5M10.5 1.27734H3.5C2.96957 1.27734 2.46086 1.48806 2.08579 1.86313C1.71071 2.2382 1.5 2.74691 1.5 3.27734V10.2773M10.5 1.27734L15.5 6.27734M15.5 6.27734V10.2773M1.5 16.2773H3C3.39782 16.2773 3.77936 16.1193 4.06066 15.838C4.34196 15.5567 4.5 15.1752 4.5 14.7773C4.5 14.3795 4.34196 13.998 4.06066 13.7167C3.77936 13.4354 3.39782 13.2773 3 13.2773H1.5V19.2773M13.5 16.2773H15.5M16.5 13.2773H13.5V19.2773M7.5 13.2773V19.2773H8.5C9.03043 19.2773 9.53914 19.0666 9.91421 18.6916C10.2893 18.3165 10.5 17.8078 10.5 17.2773V15.2773C10.5 14.7469 10.2893 14.2382 9.91421 13.8631C9.53914 13.4881 9.03043 13.2773 8.5 13.2773H7.5Z" stroke="white" stroke-width="1.5" stroke-linecap="round" stroke-linejoin="round"/>
</svg>
