<svg width="25" height="25" viewBox="0 0 25 25" fill="none" xmlns="http://www.w3.org/2000/svg">
<path d="M14.5 3.79395V7.79395C14.5 8.05916 14.6054 8.31352 14.7929 8.50105C14.9804 8.68859 15.2348 8.79395 15.5 8.79395H19.5M14.5 3.79395H7.5C6.96957 3.79395 6.46086 4.00466 6.08579 4.37973C5.71071 4.7548 5.5 5.26351 5.5 5.79395V12.7939M14.5 3.79395L19.5 8.79395M19.5 8.79395V12.7939M5.5 18.7939H7C7.39782 18.7939 7.77936 18.6359 8.06066 18.3546C8.34196 18.0733 8.5 17.6918 8.5 17.2939C8.5 16.8961 8.34196 16.5146 8.06066 16.2333C7.77936 15.952 7.39782 15.7939 7 15.7939H5.5V21.7939M17.5 18.7939H19.5M20.5 15.7939H17.5V21.7939M11.5 15.7939V21.7939H12.5C13.0304 21.7939 13.5391 21.5832 13.9142 21.2082C14.2893 20.8331 14.5 20.3244 14.5 19.7939V17.7939C14.5 17.2635 14.2893 16.7548 13.9142 16.3797C13.5391 16.0047 13.0304 15.7939 12.5 15.7939H11.5Z" stroke="white" stroke-width="1.5" stroke-linecap="round" stroke-linejoin="round"/>
</svg>
