<svg width="29" height="26" viewBox="0 0 29 26" fill="none" xmlns="http://www.w3.org/2000/svg">
<path d="M0.5 2C0.5 1.17157 1.17157 0.5 2 0.5H27C27.8284 0.5 28.5 1.17157 28.5 2C28.5 2.82843 27.8284 3.5 27 3.5H2C1.17157 3.5 0.5 2.82843 0.5 2Z" fill="black"/>
<path d="M0.5 13C0.5 12.1716 1.17157 11.5 2 11.5H27C27.8284 11.5 28.5 12.1716 28.5 13C28.5 13.8284 27.8284 14.5 27 14.5H2C1.17157 14.5 0.5 13.8284 0.5 13Z" fill="black"/>
<path d="M0.5 24C0.5 23.1716 1.17157 22.5 2 22.5H27C27.8284 22.5 28.5 23.1716 28.5 24C28.5 24.8284 27.8284 25.5 27 25.5H2C1.17157 25.5 0.5 24.8284 0.5 24Z" fill="black"/>
</svg>
