<svg width="139" height="47" viewBox="0 0 139 47" fill="none" xmlns="http://www.w3.org/2000/svg">
<path d="M127.605 0.000150401H11.2175C10.7933 0.000150401 10.3741 0.000150401 9.95099 0.00246427C9.5968 0.00477814 9.24542 0.0114999 8.88783 0.0171573C8.11096 0.0262992 7.33592 0.0946445 6.56945 0.221599C5.80405 0.351318 5.06262 0.595874 4.37025 0.946997C3.67873 1.30109 3.04686 1.7612 2.49758 2.31063C1.94541 2.85852 1.48514 3.4918 1.13446 4.18612C0.782808 4.87907 0.538972 5.62162 0.411374 6.38814C0.282562 7.15369 0.213247 7.92807 0.204051 8.70432C0.193315 9.05904 0.192181 9.41494 0.186523 9.7697V36.5114C0.192181 36.8706 0.193315 37.2186 0.204051 37.578C0.21325 38.3542 0.282564 39.1285 0.411374 39.894C0.53862 40.661 0.78247 41.404 1.13446 42.0972C1.48498 42.7893 1.94532 43.42 2.49758 43.9648C3.04478 44.5167 3.67705 44.9771 4.37025 45.3285C5.06262 45.6806 5.80396 45.9266 6.56945 46.0583C7.33605 46.1842 8.11101 46.2526 8.88783 46.2628C9.24542 46.2707 9.5968 46.2752 9.95099 46.2752C10.3741 46.2775 10.7933 46.2775 11.2175 46.2775H127.605C128.021 46.2775 128.444 46.2775 128.859 46.2752C129.212 46.2752 129.573 46.2707 129.926 46.2628C130.701 46.2531 131.475 46.1848 132.24 46.0583C133.008 45.9256 133.752 45.6797 134.447 45.3285C135.14 44.9769 135.772 44.5165 136.318 43.9648C136.869 43.4178 137.331 42.7876 137.685 42.0972C138.035 41.4035 138.276 40.6605 138.402 39.894C138.531 39.1284 138.603 38.3542 138.616 37.578C138.621 37.2186 138.621 36.8706 138.621 36.5114C138.63 36.0911 138.63 35.6731 138.63 35.2459V11.0328C138.63 10.6091 138.63 10.1889 138.621 9.7697C138.621 9.41494 138.621 9.05904 138.616 8.70428C138.603 7.92795 138.531 7.15375 138.402 6.38809C138.276 5.62202 138.034 4.87952 137.685 4.18608C136.971 2.79437 135.839 1.66154 134.447 0.946893C133.752 0.596628 133.008 0.352137 132.24 0.221495C131.475 0.093981 130.701 0.0256119 129.926 0.0169954C129.573 0.0113495 129.212 0.00456989 128.859 0.00231387C128.444 0 128.021 0 127.605 0V0.000150401Z" fill="#A6A6A6"/>
<path d="M9.9566 45.2654C9.60411 45.2654 9.26013 45.2609 8.9104 45.2531C8.1859 45.2436 7.4631 45.1805 6.74792 45.0644C6.08106 44.9495 5.43504 44.7359 4.83119 44.4305C4.23287 44.1276 3.68715 43.7305 3.21495 43.2543C2.73591 42.7838 2.33709 42.238 2.03429 41.6387C1.72815 41.0354 1.51628 40.3888 1.40607 39.7214C1.28705 39.0042 1.22265 38.2791 1.21344 37.5522C1.20611 37.3082 1.1965 36.4958 1.1965 36.4958V9.76993C1.1965 9.76993 1.20673 8.97001 1.2135 8.735C1.22232 8.00923 1.28634 7.28519 1.40501 6.56914C1.51542 5.89988 1.72745 5.25141 2.03375 4.6462C2.33544 4.04727 2.73205 3.5011 3.2082 3.02886C3.68382 2.55214 4.23128 2.15297 4.83062 1.84593C5.43309 1.54152 6.07788 1.32939 6.7434 1.21663C7.46093 1.09928 8.18624 1.03583 8.91324 1.02682L9.95717 1.0127H128.854L129.91 1.02739C130.63 1.03595 131.349 1.09883 132.06 1.21549C132.732 1.32967 133.384 1.54328 133.993 1.84932C135.194 2.4681 136.171 3.44707 136.787 4.64902C137.089 5.25006 137.297 5.89323 137.406 6.55671C137.526 7.27864 137.594 8.00838 137.607 8.74009C137.611 9.06774 137.611 9.41967 137.611 9.76993C137.62 10.2038 137.62 10.6167 137.62 11.0331V35.2462C137.62 35.6665 137.62 36.0766 137.611 36.4901C137.611 36.8663 137.611 37.211 137.606 37.5657C137.593 38.2843 137.527 39.0011 137.409 39.7101C137.301 40.3823 137.09 41.034 136.784 41.6421C136.479 42.235 136.082 42.776 135.609 43.2453C135.136 43.724 134.59 44.1235 133.99 44.4283C133.382 44.736 132.732 44.9504 132.06 45.0644C131.345 45.1812 130.622 45.2442 129.898 45.2531C129.559 45.2609 129.204 45.2654 128.859 45.2654L127.605 45.2677L9.9566 45.2654Z" fill="black"/>
<path d="M59.5918 24.6982C62.2502 24.6983 64.003 26.7999 64.003 30.0459C64.0028 33.3005 62.2606 35.3914 59.6319 35.3916C58.2731 35.4627 56.9927 34.7512 56.336 33.5596H56.2862V38.7471H54.1358V24.8076H56.2168V26.5498H56.2569C56.9427 25.3654 58.2239 24.6541 59.5918 24.6982ZM71.1201 24.6982C73.7786 24.6982 75.5313 26.7999 75.5313 30.0459C75.5311 33.3006 73.7891 35.3915 71.1602 35.3916C69.8013 35.4627 68.521 34.7513 67.8643 33.5596H67.8145V38.7471H65.6651V24.8076H67.7461V26.5498H67.7852C68.471 25.3655 69.7523 24.6542 71.1201 24.6982ZM86.5557 20.6758C89.5915 20.6758 91.6731 22.3786 91.7432 24.8574H89.5723C89.4424 23.4237 88.2574 22.5576 86.5254 22.5576C84.7935 22.5577 83.6085 23.4337 83.6084 24.708C83.6084 25.7237 84.3652 26.3218 86.2168 26.7793L87.7998 27.168C90.7475 27.8651 91.9727 29.049 91.9727 31.1504C91.9726 33.8382 89.831 35.5215 86.4258 35.5215C83.24 35.5214 81.0893 33.8777 80.9502 31.2793H83.1504C83.3098 32.704 84.6947 33.6396 86.586 33.6396C88.3979 33.6395 89.7012 32.7034 89.7012 31.4189C89.7011 30.304 88.9145 29.6363 87.0528 29.1787L85.1914 28.7305C82.5534 28.0933 81.3282 26.8594 81.3282 24.8574C81.3282 22.3787 83.4885 20.6759 86.5557 20.6758ZM104.726 24.6787C107.763 24.6787 109.694 26.7502 109.694 30.0459C109.694 33.3504 107.773 35.4121 104.726 35.4121C101.68 35.412 99.758 33.3502 99.7578 30.0459C99.7578 26.7503 101.699 24.6788 104.726 24.6787ZM122.137 24.6787C125.035 24.6789 126.856 26.6699 126.856 29.8457V30.582H119.459V30.7119C119.39 31.4917 119.659 32.2634 120.198 32.8311C120.737 33.3987 121.494 33.7075 122.276 33.6787C123.32 33.7765 124.303 33.1777 124.695 32.2061H126.737C126.448 34.1073 124.596 35.4121 122.227 35.4121C119.18 35.412 117.288 33.37 117.288 30.0947C117.288 26.8095 119.19 24.6787 122.137 24.6787ZM96.6123 24.8076H98.6045V26.5098H96.6123V32.2852C96.6125 33.1818 97.0115 33.5995 97.8867 33.5996C98.1232 33.5955 98.36 33.5788 98.5948 33.5498V35.2422C98.2012 35.3157 97.8007 35.3492 97.4004 35.3418C95.2798 35.3418 94.4522 34.5451 94.4522 32.5137V26.5098H92.9297V24.8076H94.4522V22.3291H96.6123V24.8076ZM52.8008 35.2822H50.4414L49.128 31.3994H43.6514L42.336 35.2822H40.0166L45.2032 20.915H47.6133L52.8008 35.2822ZM116.087 24.6982C116.335 24.6974 116.582 24.7241 116.824 24.7783V26.7891C116.512 26.6935 116.185 26.6497 115.858 26.6592C115.226 26.6335 114.614 26.8855 114.184 27.3486C113.753 27.812 113.546 28.4408 113.617 29.0693V35.2822H111.468V24.8076H113.519V26.5908H113.567C113.853 25.4433 114.905 24.6533 116.087 24.6982ZM104.726 26.4502C102.984 26.4503 101.949 27.7954 101.949 30.0459C101.949 32.3153 102.984 33.6395 104.726 33.6396C106.468 33.6396 107.504 32.3154 107.504 30.0459C107.504 27.7851 106.468 26.4502 104.726 26.4502ZM59.0244 26.5303C57.3818 26.5304 56.2774 27.9547 56.2774 30.0459C56.2775 32.156 57.3819 33.5692 59.0244 33.5693C60.6965 33.5693 61.7928 32.1855 61.793 30.0459C61.793 27.9252 60.6966 26.5303 59.0244 26.5303ZM70.5537 26.5303C68.911 26.5303 67.8057 27.9546 67.8057 30.0459C67.8059 32.1561 68.9111 33.5693 70.5537 33.5693C72.2255 33.5691 73.3212 32.1853 73.3213 30.0459C73.3213 27.9254 72.2257 26.5305 70.5537 26.5303ZM44.2188 29.6074H48.5596L46.419 23.3047H46.3594L44.2188 29.6074ZM122.137 26.4209C121.43 26.4167 120.75 26.6953 120.249 27.1943C119.748 27.6935 119.467 28.372 119.469 29.0791H124.705C124.744 28.3785 124.49 27.693 124.002 27.1885C123.514 26.684 122.838 26.4059 122.137 26.4209Z" fill="white"/>
<path d="M119.126 11.6948C120.576 11.6948 121.451 12.6849 121.451 14.3208V14.6792H117.772V14.7368C117.739 15.1234 117.871 15.5064 118.135 15.7905C118.399 16.0746 118.772 16.2333 119.16 16.229C119.662 16.2893 120.152 16.0404 120.399 15.5981H121.388C121.1 16.5806 120.149 17.2153 119.131 17.105C118.437 17.1233 117.768 16.8357 117.305 16.3179C116.842 15.8001 116.63 15.1048 116.725 14.4165C116.633 13.7263 116.843 13.0295 117.304 12.5073C117.765 11.9852 118.43 11.6889 119.126 11.6948ZM49.5638 12.0649C50.3608 11.5705 51.3694 11.5705 52.1664 12.0649C52.9633 12.5595 53.4108 13.4634 53.3217 14.397C53.4127 15.3315 52.9658 16.2372 52.1683 16.7329C51.3706 17.2286 50.3606 17.2285 49.5629 16.7329C48.7651 16.2372 48.3175 15.3318 48.4086 14.397C48.3194 13.4634 48.7669 12.5595 49.5638 12.0649ZM72.1674 12.0649C72.9644 11.5706 73.9729 11.5705 74.7699 12.0649C75.5669 12.5595 76.0142 13.4633 75.9252 14.397C76.0161 15.3318 75.5687 16.2373 74.7709 16.7329C73.9731 17.2285 72.9632 17.2285 72.1654 16.7329C71.3679 16.2372 70.9202 15.3316 71.0111 14.397C70.9221 13.4633 71.3704 12.5595 72.1674 12.0649ZM93.0062 12.0649C93.8032 11.5706 94.8119 11.5704 95.6088 12.0649C96.4057 12.5595 96.8532 13.4634 96.764 14.397C96.8551 15.3317 96.4075 16.2372 95.6097 16.7329C94.812 17.2286 93.802 17.2286 93.0043 16.7329C92.2068 16.2372 91.759 15.3316 91.85 14.397C91.7609 13.4634 92.2093 12.5595 93.0062 12.0649ZM79.3373 11.6948C80.6433 11.6948 81.3802 12.3445 81.3802 13.4448V17.0044H80.391V16.272H80.309C79.9728 16.8066 79.3754 17.1195 78.7445 17.0903C78.3023 17.1363 77.8615 16.9928 77.5306 16.6958C77.1998 16.3987 77.0099 15.9754 77.0082 15.5308C77.0084 14.5933 77.7065 14.0529 78.9457 13.9761L80.3568 13.895V13.4448C80.3567 12.8948 79.993 12.5845 79.2904 12.5845C78.7165 12.5845 78.3186 12.7953 78.2045 13.1636H77.2094C77.3144 12.2689 78.1557 11.695 79.3373 11.6948ZM87.597 17.0044H86.6117V16.1812H86.5297C86.1958 16.7647 85.5658 17.1151 84.8939 17.0903C83.5688 17.0903 82.7318 16.047 82.7318 14.397C82.732 12.7512 83.5779 11.7086 84.8939 11.7085C85.5586 11.6779 86.1811 12.0341 86.4916 12.6226H86.5687V9.76123H87.597V17.0044ZM108.377 11.8188H109.506V12.6851H108.377V15.3638C108.377 15.9091 108.602 16.1478 109.114 16.1479C109.245 16.1475 109.376 16.1399 109.506 16.1245V16.981C109.322 17.014 109.134 17.0318 108.947 17.0337C107.803 17.0336 107.348 16.6308 107.348 15.6265V12.6851H106.521V11.8188H107.348V10.4976H108.377V11.8188ZM43.9486 10.1011C44.8614 10.0356 45.7559 10.3829 46.3851 11.0474C47.0144 11.7118 47.3127 12.6239 47.1976 13.5317C47.1975 15.737 46.0048 17.0044 43.9486 17.0044H41.4554V10.1011H43.9486ZM56.0404 15.77H56.1176L57.1879 11.7944H58.1742L59.2455 15.77H59.3265L60.2552 11.7944H61.2836L59.8539 17.0044H58.7865L57.7103 13.1675H57.6293L56.557 17.0044H55.5004L54.0638 11.7944H55.1068L56.0404 15.77ZM65.1127 11.6948C65.6261 11.6562 66.1291 11.853 66.4799 12.23C66.8306 12.6069 66.9917 13.123 66.9164 13.6323V17.0044H65.8881V13.8901C65.8881 13.0531 65.5241 12.6364 64.764 12.6362C64.4158 12.62 64.0774 12.7575 63.8383 13.0112C63.5993 13.2649 63.4831 13.61 63.5199 13.9565V17.0044H62.4916V11.7944H63.4808V12.6226H63.558C63.8252 12.0132 64.4495 11.6409 65.1127 11.6948ZM69.5824 17.0044H68.5541V9.76123H69.5824V17.0044ZM100.765 11.6948C101.278 11.6563 101.781 11.8531 102.132 12.23C102.483 12.6069 102.643 13.123 102.568 13.6323V17.0044H101.539V13.8901C101.539 13.053 101.176 12.6362 100.415 12.6362C100.067 12.6201 99.7296 12.7575 99.4906 13.0112C99.2516 13.2649 99.1345 13.61 99.1713 13.9565V17.0044H98.1439V11.7944H99.1332V12.6226H99.2103C99.4775 12.0133 100.102 11.6409 100.765 11.6948ZM111.93 12.6323H112.011C112.291 12.0178 112.926 11.6443 113.599 11.6987C114.11 11.671 114.607 11.8721 114.953 12.2476C115.3 12.6231 115.462 13.1344 115.394 13.6411V17.0044H114.365V13.895C114.365 13.0629 113.977 12.6411 113.25 12.6411C112.893 12.6118 112.54 12.7419 112.287 12.9966C112.035 13.2511 111.907 13.6041 111.939 13.9614V17.0044H110.911V9.76123H111.93V12.6323ZM79.0844 14.7319C78.3673 14.78 78.0415 15.0239 78.0414 15.4829C78.0414 15.9518 78.4489 16.2251 79.0082 16.2251C79.3392 16.2585 79.67 16.1565 79.9242 15.9419C80.1784 15.7273 80.3342 15.4183 80.3568 15.0864V14.6509L79.0844 14.7319ZM50.8666 12.6079C49.9732 12.608 49.4702 13.2681 49.4701 14.397C49.4701 15.5352 49.9731 16.1908 50.8666 16.1909C51.7569 16.1909 52.264 15.5307 52.264 14.397C52.2639 13.268 51.7567 12.6079 50.8666 12.6079ZM73.4701 12.6079C72.5765 12.6079 72.0738 13.268 72.0736 14.397C72.0736 15.5353 72.5764 16.1909 73.4701 16.1909C74.3603 16.1909 74.8676 15.5307 74.8676 14.397C74.8674 13.2681 74.3602 12.608 73.4701 12.6079ZM94.309 12.6079C93.4154 12.6079 92.9126 13.268 92.9125 14.397C92.9125 15.5353 93.4153 16.1909 94.309 16.1909C95.1992 16.1909 95.7064 15.5307 95.7064 14.397C95.7063 13.268 95.1991 12.6079 94.309 12.6079ZM85.1859 12.6323C84.3206 12.6323 83.7935 13.3013 83.7933 14.397C83.7933 15.5019 84.3148 16.1675 85.1859 16.1675C86.0523 16.1674 86.5883 15.4926 86.5883 14.4019C86.5882 13.3163 86.0467 12.6324 85.1859 12.6323ZM42.5277 16.0288H44.0726C44.6372 15.9992 45.1716 15.75 45.558 15.3286C45.9996 14.847 46.2011 14.1919 46.1058 13.5454C46.1941 12.9017 45.9897 12.2526 45.5492 11.7749C45.1638 11.357 44.633 11.1081 44.0717 11.0767H42.5277V16.0288ZM119.12 12.5698C118.761 12.5654 118.415 12.7055 118.161 12.9595C117.908 13.2136 117.767 13.5602 117.772 13.9194H120.404C120.43 13.5659 120.305 13.2174 120.061 12.9604C119.817 12.7034 119.475 12.5617 119.12 12.5698Z" fill="white"/>
<path d="M22.1351 17.3496C23.1251 17.3496 25.0087 15.9826 26.9515 16.1865C28.7979 16.2443 30.509 17.1695 31.5687 18.6826C29.8966 19.7106 28.8675 21.5237 28.8421 23.4863C28.8445 25.7069 30.1749 27.7112 32.22 28.5762C31.8267 29.8539 31.2337 31.0617 30.4632 32.1543C29.4285 33.7021 28.3433 35.2142 26.6214 35.2422C24.9484 35.2808 24.386 34.2579 22.4671 34.2578C20.53 34.2578 19.9302 35.2137 18.3255 35.2803C16.6859 35.3408 15.4329 33.6288 14.3607 32.0957C12.2173 28.9643 10.548 23.2704 12.7855 19.3965C13.8362 17.5085 15.8007 16.31 17.9603 16.2402C19.6016 16.2065 21.1259 17.3495 22.1351 17.3496ZM26.972 10.0889C27.084 11.5515 26.6208 12.9999 25.6819 14.127C24.7711 15.2598 23.3913 15.9123 21.9378 15.8975C21.8455 14.4771 22.3215 13.0781 23.261 12.0088C24.2126 10.9251 25.5377 10.2395 26.972 10.0889Z" fill="white"/>
</svg>
