<svg width="505" height="407" viewBox="0 0 505 407" fill="none" xmlns="http://www.w3.org/2000/svg">
<rect width="505" height="407" rx="35" fill="#C1272D" fill-opacity="0.04"/>
<rect x="77" y="87" width="352" height="232" rx="8" fill="white"/>
<path d="M106.337 111.818V122H104.925L99.7493 114.533H99.6548V122H98.1186V111.818H99.5405L104.721 119.295H104.815V111.818H106.337ZM111.749 122.154C110.997 122.154 110.349 121.993 109.806 121.672C109.265 121.347 108.848 120.891 108.553 120.305C108.261 119.715 108.115 119.024 108.115 118.232C108.115 117.449 108.261 116.76 108.553 116.163C108.848 115.567 109.259 115.101 109.786 114.766C110.316 114.432 110.936 114.264 111.645 114.264C112.076 114.264 112.494 114.335 112.898 114.478C113.302 114.621 113.665 114.844 113.987 115.149C114.308 115.454 114.562 115.85 114.747 116.337C114.933 116.821 115.026 117.41 115.026 118.102V118.629H108.955V117.516H113.569C113.569 117.125 113.49 116.778 113.33 116.477C113.171 116.172 112.948 115.931 112.659 115.756C112.374 115.58 112.039 115.492 111.655 115.492C111.237 115.492 110.873 115.595 110.561 115.8C110.253 116.003 110.014 116.268 109.845 116.596C109.68 116.921 109.597 117.274 109.597 117.655V118.525C109.597 119.035 109.686 119.469 109.865 119.827C110.048 120.185 110.301 120.459 110.626 120.648C110.951 120.833 111.33 120.926 111.764 120.926C112.046 120.926 112.303 120.886 112.535 120.807C112.767 120.724 112.968 120.601 113.137 120.439C113.306 120.277 113.435 120.076 113.524 119.837L114.931 120.091C114.819 120.505 114.616 120.868 114.325 121.18C114.036 121.488 113.673 121.728 113.236 121.901C112.802 122.07 112.306 122.154 111.749 122.154ZM118.317 122L116.07 114.364H117.606L119.102 119.972H119.177L120.678 114.364H122.215L123.706 119.947H123.781L125.267 114.364H126.803L124.561 122H123.045L121.494 116.487H121.379L119.828 122H118.317ZM131.899 122V120.886L135.345 117.317C135.713 116.929 136.016 116.589 136.254 116.298C136.496 116.003 136.677 115.723 136.796 115.457C136.916 115.192 136.975 114.911 136.975 114.612C136.975 114.274 136.896 113.982 136.737 113.737C136.578 113.489 136.36 113.298 136.085 113.165C135.81 113.03 135.5 112.962 135.156 112.962C134.791 112.962 134.473 113.036 134.201 113.185C133.929 113.335 133.721 113.545 133.575 113.817C133.429 114.089 133.356 114.407 133.356 114.771H131.889C131.889 114.152 132.032 113.61 132.317 113.146C132.602 112.682 132.993 112.322 133.49 112.067C133.987 111.808 134.552 111.679 135.186 111.679C135.825 111.679 136.389 111.807 136.876 112.062C137.366 112.314 137.749 112.658 138.024 113.096C138.299 113.53 138.437 114.021 138.437 114.567C138.437 114.945 138.366 115.315 138.223 115.676C138.084 116.037 137.84 116.44 137.492 116.884C137.144 117.325 136.66 117.86 136.041 118.49L134.017 120.608V120.683H138.601V122H131.899ZM145.004 116.263V117.555H140.49V116.263H145.004ZM147.105 122V111.818H150.834C151.556 111.818 152.154 111.937 152.628 112.176C153.102 112.411 153.457 112.731 153.692 113.136C153.928 113.537 154.045 113.989 154.045 114.493C154.045 114.917 153.967 115.275 153.812 115.567C153.656 115.855 153.447 116.087 153.185 116.263C152.927 116.435 152.642 116.561 152.33 116.641V116.74C152.668 116.757 152.998 116.866 153.319 117.068C153.644 117.267 153.913 117.55 154.125 117.918C154.337 118.286 154.443 118.734 154.443 119.261C154.443 119.781 154.32 120.248 154.075 120.663C153.833 121.074 153.459 121.4 152.952 121.642C152.444 121.881 151.796 122 151.008 122H147.105ZM148.641 120.683H150.858C151.594 120.683 152.121 120.54 152.439 120.255C152.758 119.97 152.917 119.614 152.917 119.186C152.917 118.865 152.836 118.57 152.673 118.301C152.511 118.033 152.279 117.819 151.977 117.66C151.679 117.501 151.324 117.421 150.913 117.421H148.641V120.683ZM148.641 116.223H150.699C151.044 116.223 151.354 116.157 151.629 116.024C151.907 115.892 152.128 115.706 152.29 115.467C152.456 115.225 152.539 114.94 152.539 114.612C152.539 114.191 152.391 113.838 152.096 113.553C151.801 113.268 151.349 113.126 150.739 113.126H148.641V116.223ZM159.437 122.154C158.685 122.154 158.037 121.993 157.493 121.672C156.953 121.347 156.535 120.891 156.24 120.305C155.949 119.715 155.803 119.024 155.803 118.232C155.803 117.449 155.949 116.76 156.24 116.163C156.535 115.567 156.946 115.101 157.473 114.766C158.003 114.432 158.623 114.264 159.333 114.264C159.763 114.264 160.181 114.335 160.585 114.478C160.99 114.621 161.353 114.844 161.674 115.149C161.996 115.454 162.249 115.85 162.435 116.337C162.62 116.821 162.713 117.41 162.713 118.102V118.629H156.643V117.516H161.257C161.257 117.125 161.177 116.778 161.018 116.477C160.859 116.172 160.635 115.931 160.347 115.756C160.062 115.58 159.727 115.492 159.343 115.492C158.925 115.492 158.56 115.595 158.249 115.8C157.941 116.003 157.702 116.268 157.533 116.596C157.367 116.921 157.284 117.274 157.284 117.655V118.525C157.284 119.035 157.374 119.469 157.553 119.827C157.735 120.185 157.989 120.459 158.313 120.648C158.638 120.833 159.018 120.926 159.452 120.926C159.734 120.926 159.99 120.886 160.222 120.807C160.454 120.724 160.655 120.601 160.824 120.439C160.993 120.277 161.122 120.076 161.212 119.837L162.619 120.091C162.506 120.505 162.304 120.868 162.012 121.18C161.724 121.488 161.361 121.728 160.923 121.901C160.489 122.07 159.994 122.154 159.437 122.154ZM167.221 122.149C166.605 122.149 166.055 121.992 165.571 121.677C165.09 121.359 164.712 120.906 164.437 120.32C164.165 119.73 164.029 119.022 164.029 118.197C164.029 117.371 164.167 116.665 164.442 116.079C164.721 115.492 165.102 115.043 165.586 114.732C166.069 114.42 166.618 114.264 167.231 114.264C167.705 114.264 168.086 114.344 168.375 114.503C168.666 114.659 168.892 114.841 169.051 115.05C169.213 115.259 169.339 115.442 169.429 115.602H169.518V111.818H171.005V122H169.553V120.812H169.429C169.339 120.974 169.21 121.16 169.041 121.369C168.875 121.577 168.646 121.76 168.355 121.915C168.063 122.071 167.685 122.149 167.221 122.149ZM167.549 120.881C167.977 120.881 168.338 120.769 168.633 120.543C168.931 120.315 169.157 119.998 169.309 119.594C169.465 119.189 169.543 118.719 169.543 118.182C169.543 117.652 169.467 117.187 169.314 116.79C169.162 116.392 168.938 116.082 168.643 115.86C168.348 115.638 167.984 115.527 167.549 115.527C167.102 115.527 166.729 115.643 166.431 115.875C166.132 116.107 165.907 116.424 165.755 116.825C165.605 117.226 165.531 117.678 165.531 118.182C165.531 118.692 165.607 119.151 165.76 119.559C165.912 119.967 166.137 120.29 166.436 120.528C166.737 120.764 167.109 120.881 167.549 120.881ZM173.126 122V114.364H174.563V115.577H174.643C174.782 115.166 175.027 114.843 175.378 114.607C175.733 114.369 176.134 114.249 176.581 114.249C176.674 114.249 176.784 114.253 176.91 114.259C177.039 114.266 177.14 114.274 177.213 114.284V115.706C177.153 115.689 177.047 115.671 176.895 115.651C176.742 115.628 176.59 115.616 176.437 115.616C176.086 115.616 175.773 115.691 175.498 115.84C175.226 115.986 175.01 116.19 174.851 116.452C174.692 116.71 174.613 117.005 174.613 117.337V122H173.126ZM181.442 122.154C180.727 122.154 180.102 121.99 179.568 121.662C179.035 121.334 178.62 120.875 178.325 120.285C178.03 119.695 177.883 119.005 177.883 118.217C177.883 117.424 178.03 116.732 178.325 116.138C178.62 115.545 179.035 115.085 179.568 114.756C180.102 114.428 180.727 114.264 181.442 114.264C182.158 114.264 182.783 114.428 183.317 114.756C183.85 115.085 184.265 115.545 184.56 116.138C184.855 116.732 185.002 117.424 185.002 118.217C185.002 119.005 184.855 119.695 184.56 120.285C184.265 120.875 183.85 121.334 183.317 121.662C182.783 121.99 182.158 122.154 181.442 122.154ZM181.447 120.906C181.911 120.906 182.296 120.784 182.601 120.538C182.906 120.293 183.131 119.967 183.277 119.559C183.426 119.151 183.501 118.702 183.501 118.212C183.501 117.724 183.426 117.277 183.277 116.869C183.131 116.458 182.906 116.129 182.601 115.88C182.296 115.631 181.911 115.507 181.447 115.507C180.98 115.507 180.592 115.631 180.284 115.88C179.979 116.129 179.752 116.458 179.603 116.869C179.457 117.277 179.384 117.724 179.384 118.212C179.384 118.702 179.457 119.151 179.603 119.559C179.752 119.967 179.979 120.293 180.284 120.538C180.592 120.784 180.98 120.906 181.447 120.906ZM189.878 122.154C189.162 122.154 188.537 121.99 188.004 121.662C187.47 121.334 187.056 120.875 186.761 120.285C186.466 119.695 186.318 119.005 186.318 118.217C186.318 117.424 186.466 116.732 186.761 116.138C187.056 115.545 187.47 115.085 188.004 114.756C188.537 114.428 189.162 114.264 189.878 114.264C190.594 114.264 191.219 114.428 191.752 114.756C192.286 115.085 192.7 115.545 192.995 116.138C193.29 116.732 193.438 117.424 193.438 118.217C193.438 119.005 193.29 119.695 192.995 120.285C192.7 120.875 192.286 121.334 191.752 121.662C191.219 121.99 190.594 122.154 189.878 122.154ZM189.883 120.906C190.347 120.906 190.731 120.784 191.036 120.538C191.341 120.293 191.567 119.967 191.713 119.559C191.862 119.151 191.936 118.702 191.936 118.212C191.936 117.724 191.862 117.277 191.713 116.869C191.567 116.458 191.341 116.129 191.036 115.88C190.731 115.631 190.347 115.507 189.883 115.507C189.416 115.507 189.028 115.631 188.72 115.88C188.415 116.129 188.188 116.458 188.039 116.869C187.893 117.277 187.82 117.724 187.82 118.212C187.82 118.702 187.893 119.151 188.039 119.559C188.188 119.967 188.415 120.293 188.72 120.538C189.028 120.784 189.416 120.906 189.883 120.906ZM195.097 122V114.364H196.524V115.607H196.618C196.777 115.186 197.038 114.857 197.399 114.622C197.76 114.384 198.193 114.264 198.696 114.264C199.207 114.264 199.634 114.384 199.979 114.622C200.327 114.861 200.584 115.189 200.75 115.607H200.829C201.011 115.199 201.301 114.874 201.699 114.632C202.097 114.387 202.571 114.264 203.121 114.264C203.814 114.264 204.379 114.481 204.816 114.915C205.257 115.35 205.478 116.004 205.478 116.879V122H203.991V117.018C203.991 116.501 203.85 116.127 203.569 115.895C203.287 115.663 202.95 115.547 202.559 115.547C202.075 115.547 201.699 115.696 201.431 115.994C201.162 116.289 201.028 116.669 201.028 117.133V122H199.547V116.924C199.547 116.51 199.417 116.177 199.159 115.925C198.9 115.673 198.564 115.547 198.15 115.547C197.868 115.547 197.608 115.621 197.369 115.771C197.134 115.916 196.943 116.12 196.797 116.382C196.655 116.644 196.583 116.947 196.583 117.292V122H195.097ZM214.809 114.364V115.557H210.494V114.364H214.809ZM211.677 122V113.479C211.677 113.001 211.782 112.605 211.99 112.29C212.199 111.972 212.476 111.735 212.821 111.58C213.165 111.42 213.54 111.341 213.944 111.341C214.243 111.341 214.498 111.366 214.71 111.415C214.922 111.462 215.079 111.505 215.182 111.545L214.834 112.748C214.765 112.728 214.675 112.705 214.566 112.678C214.456 112.648 214.324 112.634 214.168 112.634C213.807 112.634 213.548 112.723 213.392 112.902C213.24 113.081 213.164 113.339 213.164 113.678V122H211.677ZM217.83 111.818V122H216.343V111.818H217.83ZM222.052 122.169C221.568 122.169 221.13 122.08 220.739 121.901C220.348 121.718 220.038 121.455 219.809 121.11C219.584 120.765 219.471 120.343 219.471 119.842C219.471 119.411 219.554 119.057 219.72 118.778C219.886 118.5 220.109 118.28 220.391 118.117C220.673 117.955 220.988 117.832 221.336 117.749C221.684 117.666 222.038 117.603 222.4 117.56C222.857 117.507 223.228 117.464 223.513 117.431C223.798 117.395 224.006 117.337 224.135 117.257C224.264 117.178 224.329 117.048 224.329 116.869V116.835C224.329 116.4 224.206 116.064 223.961 115.825C223.719 115.587 223.358 115.467 222.877 115.467C222.376 115.467 221.982 115.578 221.694 115.8C221.409 116.019 221.211 116.263 221.102 116.531L219.705 116.213C219.871 115.749 220.113 115.375 220.431 115.089C220.752 114.801 221.122 114.592 221.54 114.463C221.957 114.33 222.396 114.264 222.857 114.264C223.162 114.264 223.485 114.301 223.827 114.374C224.171 114.443 224.493 114.572 224.791 114.761C225.093 114.95 225.34 115.22 225.532 115.572C225.724 115.92 225.82 116.372 225.82 116.929V122H224.368V120.956H224.309C224.213 121.148 224.068 121.337 223.876 121.523C223.684 121.708 223.437 121.862 223.135 121.985C222.834 122.108 222.473 122.169 222.052 122.169ZM222.375 120.976C222.786 120.976 223.137 120.895 223.429 120.732C223.724 120.57 223.948 120.358 224.1 120.096C224.256 119.831 224.334 119.547 224.334 119.246V118.261C224.281 118.314 224.178 118.364 224.025 118.411C223.876 118.454 223.706 118.492 223.513 118.525C223.321 118.555 223.134 118.583 222.952 118.609C222.769 118.633 222.617 118.652 222.494 118.669C222.206 118.705 221.942 118.767 221.704 118.853C221.468 118.939 221.279 119.063 221.137 119.226C220.998 119.385 220.928 119.597 220.928 119.862C220.928 120.23 221.064 120.509 221.336 120.697C221.608 120.883 221.954 120.976 222.375 120.976ZM231.365 114.364V115.557H227.194V114.364H231.365ZM228.312 112.534H229.799V119.758C229.799 120.046 229.842 120.263 229.928 120.409C230.014 120.552 230.125 120.649 230.261 120.702C230.4 120.752 230.551 120.777 230.713 120.777C230.833 120.777 230.937 120.769 231.027 120.752C231.116 120.736 231.186 120.722 231.235 120.712L231.504 121.94C231.418 121.973 231.295 122.007 231.136 122.04C230.977 122.076 230.778 122.096 230.539 122.099C230.148 122.106 229.784 122.036 229.446 121.891C229.108 121.745 228.834 121.519 228.625 121.214C228.417 120.91 228.312 120.527 228.312 120.066V112.534Z" fill="#101010"/>
<mask id="path-4-inside-1_1518_1495" fill="white">
<path d="M97 137H193.656V155H97V137Z"/>
</mask>
<path d="M193.656 137H192.656V155H193.656H194.656V137H193.656Z" fill="#878787" fill-opacity="0.15" mask="url(#path-4-inside-1_1518_1495)"/>
<path d="M99.7049 145.328C99.7049 145.758 99.8759 146.171 100.18 146.475C100.485 146.78 100.897 146.951 101.328 146.951C101.758 146.951 102.171 146.78 102.475 146.475C102.78 146.171 102.951 145.758 102.951 145.328C102.951 144.897 102.78 144.484 102.475 144.18C102.171 143.876 101.758 143.705 101.328 143.705C100.897 143.705 100.485 143.876 100.18 144.18C99.8759 144.484 99.7049 144.897 99.7049 145.328Z" stroke="#878787" stroke-opacity="0.75" stroke-linecap="round" stroke-linejoin="round"/>
<path d="M104.388 148.388L102.093 150.683C101.89 150.886 101.615 151 101.328 151C101.041 151 100.766 150.886 100.563 150.683L98.2675 148.388C97.6623 147.783 97.2501 147.012 97.0831 146.172C96.9162 145.333 97.0019 144.462 97.3295 143.672C97.657 142.881 98.2118 142.205 98.9235 141.729C99.6352 141.254 100.472 141 101.328 141C102.184 141 103.021 141.254 103.732 141.729C104.444 142.205 104.999 142.881 105.326 143.672C105.654 144.462 105.74 145.333 105.573 146.172C105.406 147.012 104.993 147.783 104.388 148.388Z" stroke="#878787" stroke-opacity="0.75" stroke-linecap="round" stroke-linejoin="round"/>
<path d="M110.615 150V141.273H111.931V148.866H115.886V150H110.615ZM120.107 150.132C119.462 150.132 118.906 149.994 118.441 149.719C117.978 149.44 117.62 149.05 117.367 148.547C117.117 148.041 116.992 147.449 116.992 146.77C116.992 146.099 117.117 145.509 117.367 144.997C117.62 144.486 117.972 144.087 118.424 143.8C118.878 143.513 119.409 143.369 120.017 143.369C120.387 143.369 120.745 143.43 121.091 143.553C121.438 143.675 121.749 143.866 122.024 144.128C122.3 144.389 122.517 144.729 122.676 145.146C122.835 145.561 122.915 146.065 122.915 146.659V147.111H117.712V146.156H121.666C121.666 145.821 121.598 145.524 121.462 145.266C121.326 145.004 121.134 144.798 120.887 144.648C120.642 144.497 120.355 144.422 120.026 144.422C119.668 144.422 119.355 144.51 119.088 144.686C118.824 144.859 118.62 145.087 118.475 145.368C118.333 145.646 118.262 145.949 118.262 146.276V147.021C118.262 147.459 118.338 147.831 118.492 148.138C118.648 148.445 118.865 148.679 119.144 148.841C119.422 149 119.747 149.08 120.12 149.08C120.361 149.08 120.581 149.045 120.78 148.977C120.979 148.906 121.151 148.801 121.296 148.662C121.441 148.523 121.551 148.351 121.628 148.146L122.834 148.364C122.737 148.719 122.564 149.03 122.314 149.297C122.067 149.561 121.756 149.767 121.381 149.915C121.009 150.06 120.584 150.132 120.107 150.132ZM125.501 147.78L125.492 146.224H125.714L128.322 143.455H129.847L126.873 146.608H126.672L125.501 147.78ZM124.329 150V141.273H125.603V150H124.329ZM128.462 150L126.118 146.889L126.996 145.999L130.026 150H128.462ZM132.18 147.78L132.172 146.224H132.393L135.001 143.455H136.527L133.552 146.608H133.352L132.18 147.78ZM131.008 150V141.273H132.283V150H131.008ZM135.142 150L132.798 146.889L133.676 145.999L136.706 150H135.142ZM137.688 150V143.455H138.962V150H137.688ZM138.332 142.445C138.11 142.445 137.92 142.371 137.761 142.223C137.604 142.072 137.526 141.893 137.526 141.686C137.526 141.476 137.604 141.297 137.761 141.149C137.92 140.999 138.11 140.923 138.332 140.923C138.553 140.923 138.742 140.999 138.898 141.149C139.057 141.297 139.137 141.476 139.137 141.686C139.137 141.893 139.057 142.072 138.898 142.223C138.742 142.371 138.553 142.445 138.332 142.445ZM142.334 148.807L142.27 149.271C142.228 149.612 142.155 149.967 142.053 150.337C141.953 150.709 141.85 151.054 141.742 151.372C141.637 151.69 141.55 151.943 141.482 152.131H140.578C140.615 151.955 140.666 151.716 140.732 151.415C140.797 151.116 140.861 150.783 140.924 150.413C140.986 150.044 141.033 149.668 141.064 149.284L141.107 148.807H142.334ZM147.271 150V141.273H148.588V148.866H152.542V150H147.271ZM155.847 150.145C155.432 150.145 155.057 150.068 154.722 149.915C154.387 149.759 154.121 149.533 153.925 149.237C153.732 148.942 153.635 148.58 153.635 148.151C153.635 147.781 153.706 147.477 153.848 147.239C153.99 147 154.182 146.811 154.424 146.672C154.665 146.533 154.935 146.428 155.233 146.357C155.531 146.286 155.835 146.232 156.145 146.195C156.537 146.149 156.855 146.112 157.1 146.084C157.344 146.053 157.522 146.003 157.632 145.935C157.743 145.866 157.799 145.756 157.799 145.602V145.572C157.799 145.2 157.693 144.912 157.483 144.707C157.276 144.503 156.966 144.401 156.554 144.401C156.125 144.401 155.787 144.496 155.54 144.686C155.296 144.874 155.127 145.082 155.033 145.312L153.835 145.04C153.978 144.642 154.185 144.321 154.458 144.077C154.733 143.83 155.05 143.651 155.408 143.54C155.766 143.426 156.142 143.369 156.537 143.369C156.799 143.369 157.076 143.401 157.368 143.463C157.664 143.523 157.939 143.634 158.195 143.795C158.453 143.957 158.665 144.189 158.83 144.49C158.995 144.788 159.077 145.176 159.077 145.653V150H157.833V149.105H157.781C157.699 149.27 157.576 149.432 157.411 149.591C157.246 149.75 157.034 149.882 156.776 149.987C156.517 150.092 156.208 150.145 155.847 150.145ZM156.124 149.122C156.476 149.122 156.777 149.053 157.027 148.913C157.28 148.774 157.472 148.592 157.603 148.368C157.736 148.141 157.803 147.898 157.803 147.639V146.795C157.757 146.841 157.669 146.884 157.539 146.923C157.411 146.96 157.264 146.993 157.1 147.021C156.935 147.047 156.774 147.071 156.618 147.094C156.462 147.114 156.331 147.131 156.226 147.145C155.979 147.176 155.753 147.229 155.549 147.303C155.347 147.376 155.185 147.483 155.063 147.622C154.943 147.759 154.884 147.94 154.884 148.168C154.884 148.483 155 148.722 155.233 148.884C155.466 149.043 155.763 149.122 156.124 149.122ZM163.518 152.591C162.998 152.591 162.551 152.523 162.176 152.386C161.804 152.25 161.5 152.07 161.264 151.845C161.028 151.621 160.852 151.375 160.736 151.108L161.831 150.656C161.908 150.781 162.01 150.913 162.138 151.053C162.268 151.195 162.444 151.315 162.666 151.415C162.891 151.514 163.179 151.564 163.531 151.564C164.014 151.564 164.413 151.446 164.729 151.21C165.044 150.977 165.202 150.605 165.202 150.094V148.807H165.121C165.044 148.946 164.933 149.101 164.788 149.271C164.646 149.442 164.45 149.589 164.2 149.714C163.95 149.839 163.625 149.902 163.224 149.902C162.707 149.902 162.241 149.781 161.827 149.54C161.415 149.295 161.088 148.936 160.846 148.462C160.608 147.984 160.489 147.398 160.489 146.702C160.489 146.006 160.606 145.409 160.842 144.912C161.081 144.415 161.408 144.034 161.822 143.77C162.237 143.503 162.707 143.369 163.233 143.369C163.639 143.369 163.967 143.438 164.217 143.574C164.467 143.707 164.662 143.864 164.801 144.043C164.943 144.222 165.052 144.379 165.129 144.516H165.223V143.455H166.471V150.145C166.471 150.707 166.341 151.169 166.079 151.53C165.818 151.891 165.464 152.158 165.018 152.331C164.575 152.504 164.075 152.591 163.518 152.591ZM163.506 148.845C163.872 148.845 164.182 148.76 164.435 148.589C164.69 148.416 164.883 148.169 165.014 147.848C165.148 147.524 165.214 147.136 165.214 146.685C165.214 146.244 165.149 145.857 165.018 145.521C164.888 145.186 164.696 144.925 164.443 144.737C164.19 144.547 163.878 144.452 163.506 144.452C163.122 144.452 162.802 144.551 162.547 144.75C162.291 144.946 162.098 145.213 161.967 145.551C161.839 145.889 161.775 146.267 161.775 146.685C161.775 147.114 161.841 147.49 161.971 147.814C162.102 148.138 162.295 148.391 162.551 148.572C162.81 148.754 163.128 148.845 163.506 148.845ZM170.937 150.132C170.324 150.132 169.788 149.991 169.331 149.71C168.873 149.429 168.518 149.036 168.266 148.53C168.013 148.024 167.886 147.433 167.886 146.757C167.886 146.078 168.013 145.484 168.266 144.976C168.518 144.467 168.873 144.072 169.331 143.791C169.788 143.51 170.324 143.369 170.937 143.369C171.551 143.369 172.087 143.51 172.544 143.791C173.001 144.072 173.356 144.467 173.609 144.976C173.862 145.484 173.989 146.078 173.989 146.757C173.989 147.433 173.862 148.024 173.609 148.53C173.356 149.036 173.001 149.429 172.544 149.71C172.087 149.991 171.551 150.132 170.937 150.132ZM170.942 149.062C171.339 149.062 171.669 148.957 171.93 148.747C172.192 148.537 172.385 148.257 172.51 147.908C172.638 147.558 172.702 147.173 172.702 146.753C172.702 146.335 172.638 145.952 172.51 145.602C172.385 145.25 172.192 144.967 171.93 144.754C171.669 144.541 171.339 144.435 170.942 144.435C170.541 144.435 170.209 144.541 169.944 144.754C169.683 144.967 169.489 145.25 169.361 145.602C169.236 145.952 169.173 146.335 169.173 146.753C169.173 147.173 169.236 147.558 169.361 147.908C169.489 148.257 169.683 148.537 169.944 148.747C170.209 148.957 170.541 149.062 170.942 149.062ZM180.316 145.053L179.161 145.257C179.112 145.109 179.036 144.969 178.931 144.835C178.828 144.702 178.689 144.592 178.513 144.507C178.337 144.422 178.117 144.379 177.853 144.379C177.492 144.379 177.191 144.46 176.949 144.622C176.708 144.781 176.587 144.987 176.587 145.24C176.587 145.459 176.668 145.635 176.83 145.768C176.992 145.902 177.253 146.011 177.614 146.097L178.654 146.335C179.256 146.474 179.705 146.689 180 146.979C180.296 147.268 180.443 147.645 180.443 148.108C180.443 148.5 180.33 148.849 180.103 149.156C179.878 149.46 179.564 149.699 179.161 149.872C178.76 150.045 178.296 150.132 177.767 150.132C177.034 150.132 176.436 149.976 175.973 149.663C175.51 149.348 175.226 148.901 175.121 148.321L176.353 148.134C176.429 148.455 176.587 148.697 176.826 148.862C177.064 149.024 177.375 149.105 177.759 149.105C178.176 149.105 178.51 149.018 178.76 148.845C179.01 148.669 179.135 148.455 179.135 148.202C179.135 147.997 179.058 147.825 178.905 147.686C178.754 147.547 178.523 147.442 178.21 147.371L177.103 147.128C176.492 146.989 176.04 146.767 175.747 146.463C175.458 146.159 175.313 145.774 175.313 145.308C175.313 144.922 175.421 144.584 175.637 144.294C175.853 144.004 176.151 143.778 176.531 143.616C176.912 143.452 177.348 143.369 177.84 143.369C178.547 143.369 179.104 143.523 179.51 143.83C179.916 144.134 180.185 144.541 180.316 145.053Z" fill="#878787" fill-opacity="0.75"/>
<mask id="path-8-inside-2_1518_1495" fill="white">
<path d="M193.656 137H270.656V155H193.656V137Z"/>
</mask>
<path d="M270.656 137H269.656V155H270.656H271.656V137H270.656Z" fill="#878787" fill-opacity="0.15" mask="url(#path-8-inside-2_1518_1495)"/>
<path d="M205.656 150H222.656M205.656 145C205.656 145.53 205.855 146.039 206.209 146.414C206.563 146.789 207.044 147 207.545 147C208.046 147 208.526 146.789 208.88 146.414C209.235 146.039 209.434 145.53 209.434 145C209.434 144.47 209.235 143.961 208.88 143.586C208.526 143.211 208.046 143 207.545 143C207.044 143 206.563 143.211 206.209 143.586C205.855 143.961 205.656 144.47 205.656 145ZM212.267 147H222.656V145C222.656 144.204 222.357 143.441 221.826 142.879C221.295 142.316 220.574 142 219.822 142H212.267V147Z" stroke="#878787" stroke-opacity="0.75" stroke-linecap="round" stroke-linejoin="round"/>
<path d="M230.806 141.273V150H229.485V142.594H229.434L227.346 143.957V142.696L229.524 141.273H230.806ZM236.462 150V141.273H239.658C240.278 141.273 240.79 141.375 241.197 141.58C241.603 141.781 241.907 142.055 242.109 142.402C242.31 142.746 242.411 143.134 242.411 143.565C242.411 143.929 242.344 144.236 242.211 144.486C242.077 144.733 241.898 144.932 241.674 145.082C241.452 145.23 241.208 145.338 240.941 145.406V145.491C241.231 145.506 241.513 145.599 241.789 145.773C242.067 145.943 242.297 146.186 242.479 146.501C242.661 146.817 242.752 147.2 242.752 147.652C242.752 148.098 242.647 148.499 242.437 148.854C242.229 149.206 241.908 149.486 241.474 149.693C241.039 149.898 240.484 150 239.807 150H236.462ZM237.779 148.871H239.68C240.31 148.871 240.762 148.749 241.035 148.504C241.307 148.26 241.444 147.955 241.444 147.588C241.444 147.312 241.374 147.06 241.235 146.83C241.096 146.599 240.897 146.416 240.638 146.28C240.383 146.143 240.079 146.075 239.726 146.075H237.779V148.871ZM237.779 145.048H239.543C239.839 145.048 240.104 144.991 240.34 144.878C240.579 144.764 240.768 144.605 240.907 144.401C241.049 144.193 241.12 143.949 241.12 143.668C241.12 143.307 240.993 143.004 240.741 142.76C240.488 142.516 240.1 142.393 239.577 142.393H237.779V145.048ZM247.033 150.132C246.388 150.132 245.832 149.994 245.366 149.719C244.903 149.44 244.545 149.05 244.292 148.547C244.042 148.041 243.917 147.449 243.917 146.77C243.917 146.099 244.042 145.509 244.292 144.997C244.545 144.486 244.898 144.087 245.349 143.8C245.804 143.513 246.335 143.369 246.943 143.369C247.312 143.369 247.67 143.43 248.017 143.553C248.364 143.675 248.675 143.866 248.95 144.128C249.226 144.389 249.443 144.729 249.602 145.146C249.761 145.561 249.841 146.065 249.841 146.659V147.111H244.638V146.156H248.592C248.592 145.821 248.524 145.524 248.388 145.266C248.251 145.004 248.06 144.798 247.812 144.648C247.568 144.497 247.281 144.422 246.952 144.422C246.594 144.422 246.281 144.51 246.014 144.686C245.75 144.859 245.545 145.087 245.4 145.368C245.258 145.646 245.187 145.949 245.187 146.276V147.021C245.187 147.459 245.264 147.831 245.417 148.138C245.574 148.445 245.791 148.679 246.069 148.841C246.348 149 246.673 149.08 247.045 149.08C247.287 149.08 247.507 149.045 247.706 148.977C247.905 148.906 248.077 148.801 248.221 148.662C248.366 148.523 248.477 148.351 248.554 148.146L249.76 148.364C249.663 148.719 249.49 149.03 249.24 149.297C248.993 149.561 248.682 149.767 248.307 149.915C247.935 150.06 247.51 150.132 247.033 150.132ZM253.705 150.128C253.176 150.128 252.705 149.993 252.29 149.723C251.878 149.45 251.554 149.062 251.318 148.56C251.085 148.054 250.969 147.447 250.969 146.74C250.969 146.033 251.087 145.428 251.323 144.925C251.561 144.422 251.888 144.037 252.303 143.77C252.718 143.503 253.188 143.369 253.713 143.369C254.12 143.369 254.446 143.438 254.693 143.574C254.943 143.707 255.137 143.864 255.273 144.043C255.412 144.222 255.52 144.379 255.597 144.516H255.674V141.273H256.948V150H255.703V148.982H255.597C255.52 149.121 255.409 149.28 255.264 149.459C255.122 149.638 254.926 149.794 254.676 149.928C254.426 150.061 254.102 150.128 253.705 150.128ZM253.986 149.041C254.352 149.041 254.662 148.945 254.915 148.751C255.171 148.555 255.364 148.284 255.495 147.938C255.628 147.591 255.695 147.187 255.695 146.727C255.695 146.273 255.629 145.875 255.499 145.534C255.368 145.193 255.176 144.928 254.924 144.737C254.671 144.547 254.358 144.452 253.986 144.452C253.602 144.452 253.283 144.551 253.027 144.75C252.772 144.949 252.578 145.22 252.448 145.564C252.32 145.908 252.256 146.295 252.256 146.727C252.256 147.165 252.321 147.558 252.452 147.908C252.583 148.257 252.776 148.534 253.031 148.739C253.29 148.94 253.608 149.041 253.986 149.041Z" fill="#878787" fill-opacity="0.75"/>
<path d="M284.322 146V142.111C284.322 141.816 284.439 141.534 284.648 141.325C284.856 141.117 285.139 141 285.434 141H287.1V142.25M283.211 151L283.767 150.167M292.1 151L291.545 150.167M283.211 146H292.1C292.248 146 292.389 146.059 292.493 146.163C292.597 146.267 292.656 146.408 292.656 146.556V148.222C292.656 148.812 292.422 149.377 292.005 149.794C291.588 150.21 291.023 150.444 290.434 150.444H284.878C284.289 150.444 283.723 150.21 283.307 149.794C282.89 149.377 282.656 148.812 282.656 148.222V146.556C282.656 146.408 282.714 146.267 282.818 146.163C282.923 146.059 283.064 146 283.211 146Z" stroke="#878787" stroke-opacity="0.75" stroke-linecap="round" stroke-linejoin="round"/>
<path d="M300.806 141.273V150H299.485V142.594H299.434L297.346 143.957V142.696L299.524 141.273H300.806ZM306.462 150V141.273H309.658C310.278 141.273 310.79 141.375 311.197 141.58C311.603 141.781 311.907 142.055 312.109 142.402C312.31 142.746 312.411 143.134 312.411 143.565C312.411 143.929 312.344 144.236 312.211 144.486C312.077 144.733 311.898 144.932 311.674 145.082C311.452 145.23 311.208 145.338 310.941 145.406V145.491C311.231 145.506 311.513 145.599 311.789 145.773C312.067 145.943 312.297 146.186 312.479 146.501C312.661 146.817 312.752 147.2 312.752 147.652C312.752 148.098 312.647 148.499 312.437 148.854C312.229 149.206 311.908 149.486 311.474 149.693C311.039 149.898 310.484 150 309.807 150H306.462ZM307.779 148.871H309.68C310.31 148.871 310.762 148.749 311.035 148.504C311.307 148.26 311.444 147.955 311.444 147.588C311.444 147.312 311.374 147.06 311.235 146.83C311.096 146.599 310.897 146.416 310.638 146.28C310.383 146.143 310.079 146.075 309.726 146.075H307.779V148.871ZM307.779 145.048H309.543C309.839 145.048 310.104 144.991 310.34 144.878C310.579 144.764 310.768 144.605 310.907 144.401C311.049 144.193 311.12 143.949 311.12 143.668C311.12 143.307 310.993 143.004 310.741 142.76C310.488 142.516 310.1 142.393 309.577 142.393H307.779V145.048ZM316.116 150.145C315.702 150.145 315.327 150.068 314.991 149.915C314.656 149.759 314.39 149.533 314.194 149.237C314.001 148.942 313.905 148.58 313.905 148.151C313.905 147.781 313.976 147.477 314.118 147.239C314.26 147 314.452 146.811 314.693 146.672C314.935 146.533 315.204 146.428 315.503 146.357C315.801 146.286 316.105 146.232 316.415 146.195C316.807 146.149 317.125 146.112 317.369 146.084C317.614 146.053 317.791 146.003 317.902 145.935C318.013 145.866 318.068 145.756 318.068 145.602V145.572C318.068 145.2 317.963 144.912 317.753 144.707C317.545 144.503 317.236 144.401 316.824 144.401C316.395 144.401 316.057 144.496 315.81 144.686C315.565 144.874 315.396 145.082 315.302 145.312L314.105 145.04C314.247 144.642 314.454 144.321 314.727 144.077C315.003 143.83 315.319 143.651 315.677 143.54C316.035 143.426 316.412 143.369 316.807 143.369C317.068 143.369 317.345 143.401 317.638 143.463C317.933 143.523 318.209 143.634 318.464 143.795C318.723 143.957 318.935 144.189 319.099 144.49C319.264 144.788 319.346 145.176 319.346 145.653V150H318.102V149.105H318.051C317.969 149.27 317.845 149.432 317.68 149.591C317.515 149.75 317.304 149.882 317.045 149.987C316.787 150.092 316.477 150.145 316.116 150.145ZM316.393 149.122C316.746 149.122 317.047 149.053 317.297 148.913C317.55 148.774 317.741 148.592 317.872 148.368C318.006 148.141 318.072 147.898 318.072 147.639V146.795C318.027 146.841 317.939 146.884 317.808 146.923C317.68 146.96 317.534 146.993 317.369 147.021C317.204 147.047 317.044 147.071 316.888 147.094C316.731 147.114 316.601 147.131 316.496 147.145C316.248 147.176 316.023 147.229 315.818 147.303C315.616 147.376 315.454 147.483 315.332 147.622C315.213 147.759 315.153 147.94 315.153 148.168C315.153 148.483 315.27 148.722 315.503 148.884C315.736 149.043 316.033 149.122 316.393 149.122ZM324.099 143.455V144.477H320.524V143.455H324.099ZM321.482 141.886H322.757V148.078C322.757 148.325 322.794 148.511 322.867 148.636C322.941 148.759 323.036 148.842 323.153 148.888C323.272 148.93 323.402 148.952 323.541 148.952C323.643 148.952 323.732 148.945 323.809 148.93C323.886 148.916 323.946 148.905 323.988 148.896L324.218 149.949C324.144 149.977 324.039 150.006 323.903 150.034C323.767 150.065 323.596 150.082 323.392 150.085C323.056 150.091 322.744 150.031 322.454 149.906C322.164 149.781 321.93 149.588 321.751 149.327C321.572 149.065 321.482 148.737 321.482 148.342V141.886ZM326.923 146.114V150H325.649V141.273H326.906V144.52H326.987C327.14 144.168 327.375 143.888 327.69 143.68C328.006 143.473 328.417 143.369 328.926 143.369C329.375 143.369 329.767 143.462 330.102 143.646C330.44 143.831 330.702 144.107 330.886 144.473C331.074 144.837 331.167 145.291 331.167 145.837V150H329.893V145.99C329.893 145.51 329.77 145.138 329.523 144.874C329.275 144.607 328.932 144.473 328.491 144.473C328.19 144.473 327.92 144.537 327.682 144.665C327.446 144.793 327.26 144.98 327.123 145.227C326.99 145.472 326.923 145.767 326.923 146.114Z" fill="#878787" fill-opacity="0.75"/>
<path d="M108.847 175.614V176.75H97.2557V175.614H108.847ZM108.847 178.068V179.205H97.2557V178.068H108.847ZM107.92 171.364V183H105.795L100.739 175.676H100.648V183H98.1932V171.364H100.347L105.375 178.682H105.472V171.364H107.92ZM114.354 183.159C113.505 183.159 112.75 183.013 112.087 182.722C111.428 182.426 110.907 182.021 110.524 181.506C110.145 180.987 109.95 180.388 109.939 179.71H112.416C112.431 179.994 112.524 180.244 112.695 180.46C112.869 180.672 113.1 180.837 113.388 180.955C113.676 181.072 114 181.131 114.359 181.131C114.734 181.131 115.066 181.064 115.354 180.932C115.642 180.799 115.867 180.616 116.03 180.381C116.193 180.146 116.274 179.875 116.274 179.568C116.274 179.258 116.187 178.983 116.013 178.744C115.842 178.502 115.596 178.312 115.274 178.176C114.956 178.04 114.577 177.972 114.138 177.972H113.053V176.165H114.138C114.509 176.165 114.837 176.1 115.121 175.972C115.409 175.843 115.632 175.665 115.791 175.438C115.95 175.206 116.03 174.938 116.03 174.631C116.03 174.339 115.96 174.083 115.82 173.864C115.683 173.64 115.49 173.466 115.24 173.341C114.994 173.216 114.706 173.153 114.376 173.153C114.043 173.153 113.738 173.214 113.462 173.335C113.185 173.453 112.964 173.621 112.797 173.841C112.63 174.061 112.541 174.318 112.53 174.614H110.172C110.183 173.943 110.375 173.352 110.746 172.841C111.117 172.33 111.617 171.93 112.246 171.642C112.878 171.35 113.592 171.205 114.388 171.205C115.191 171.205 115.893 171.35 116.496 171.642C117.098 171.934 117.566 172.328 117.899 172.824C118.236 173.316 118.403 173.869 118.399 174.483C118.403 175.134 118.2 175.678 117.791 176.114C117.386 176.549 116.857 176.826 116.206 176.943V177.034C117.062 177.144 117.714 177.441 118.161 177.926C118.611 178.407 118.835 179.009 118.831 179.733C118.835 180.396 118.643 180.985 118.257 181.5C117.875 182.015 117.346 182.42 116.672 182.716C115.998 183.011 115.225 183.159 114.354 183.159ZM120.599 183V181.227L124.741 177.392C125.094 177.051 125.389 176.744 125.628 176.472C125.87 176.199 126.054 175.932 126.179 175.67C126.304 175.405 126.366 175.119 126.366 174.812C126.366 174.472 126.289 174.178 126.134 173.932C125.978 173.682 125.766 173.491 125.497 173.358C125.228 173.222 124.923 173.153 124.582 173.153C124.226 173.153 123.916 173.225 123.651 173.369C123.385 173.513 123.181 173.72 123.037 173.989C122.893 174.258 122.821 174.578 122.821 174.949H120.486C120.486 174.187 120.658 173.527 121.003 172.966C121.348 172.405 121.83 171.972 122.452 171.665C123.073 171.358 123.789 171.205 124.599 171.205C125.433 171.205 126.158 171.352 126.776 171.648C127.397 171.939 127.88 172.345 128.224 172.864C128.569 173.383 128.741 173.977 128.741 174.648C128.741 175.087 128.654 175.521 128.48 175.949C128.31 176.377 128.005 176.852 127.565 177.375C127.126 177.894 126.507 178.517 125.707 179.244L124.009 180.909V180.989H128.895V183H120.599ZM135.24 183.256C134.263 183.252 133.422 183.011 132.717 182.534C132.017 182.057 131.477 181.366 131.098 180.46C130.723 179.555 130.537 178.466 130.541 177.193C130.541 175.924 130.729 174.843 131.104 173.949C131.482 173.055 132.022 172.375 132.723 171.909C133.428 171.439 134.267 171.205 135.24 171.205C136.214 171.205 137.051 171.439 137.751 171.909C138.456 172.379 138.998 173.061 139.376 173.955C139.755 174.845 139.943 175.924 139.939 177.193C139.939 178.47 139.75 179.561 139.371 180.466C138.996 181.371 138.458 182.062 137.757 182.54C137.056 183.017 136.217 183.256 135.24 183.256ZM135.24 181.216C135.907 181.216 136.439 180.881 136.837 180.21C137.234 179.54 137.431 178.534 137.428 177.193C137.428 176.311 137.337 175.576 137.155 174.989C136.977 174.402 136.723 173.96 136.393 173.665C136.068 173.369 135.683 173.222 135.24 173.222C134.577 173.222 134.047 173.553 133.649 174.216C133.251 174.879 133.051 175.871 133.047 177.193C133.047 178.087 133.136 178.833 133.314 179.432C133.496 180.027 133.751 180.473 134.081 180.773C134.411 181.068 134.797 181.216 135.24 181.216ZM143.909 180.489L143.915 177.585H144.267L147.062 174.273H149.841L146.085 178.659H145.511L143.909 180.489ZM141.716 183V171.364H144.136V183H141.716ZM147.17 183L144.602 179.199L146.216 177.489L150.006 183H147.17ZM156.097 170.818L152.347 184.75H150.261L154.011 170.818H156.097ZM158.757 186.273C158.45 186.273 158.162 186.248 157.893 186.199C157.628 186.153 157.409 186.095 157.234 186.023L157.78 184.216C158.064 184.303 158.32 184.35 158.547 184.358C158.778 184.366 158.977 184.313 159.143 184.199C159.314 184.085 159.452 183.892 159.558 183.619L159.7 183.25L156.57 174.273H159.115L160.922 180.682H161.013L162.837 174.273H165.399L162.007 183.943C161.844 184.413 161.623 184.822 161.342 185.17C161.066 185.523 160.715 185.794 160.291 185.983C159.867 186.176 159.356 186.273 158.757 186.273ZM166.638 183V174.273H168.984V175.795H169.075C169.234 175.254 169.501 174.845 169.876 174.568C170.251 174.288 170.683 174.148 171.172 174.148C171.293 174.148 171.424 174.155 171.564 174.17C171.704 174.186 171.827 174.206 171.933 174.233V176.381C171.82 176.347 171.662 176.316 171.462 176.29C171.261 176.263 171.077 176.25 170.911 176.25C170.554 176.25 170.236 176.328 169.956 176.483C169.679 176.634 169.46 176.847 169.297 177.119C169.138 177.392 169.058 177.706 169.058 178.062V183H166.638ZM177.422 177.182C177.422 175.773 177.609 174.475 177.984 173.29C178.363 172.104 178.941 171.006 179.717 169.994H182.03C181.734 170.369 181.46 170.828 181.206 171.369C180.952 171.907 180.731 172.498 180.541 173.142C180.352 173.786 180.204 174.453 180.098 175.142C179.992 175.828 179.939 176.508 179.939 177.182C179.939 178.08 180.03 178.987 180.212 179.903C180.397 180.816 180.647 181.665 180.962 182.449C181.28 183.233 181.636 183.875 182.03 184.375H179.717C178.941 183.364 178.363 182.265 177.984 181.08C177.609 179.894 177.422 178.595 177.422 177.182ZM187.321 184.455V169.909H188.253V184.455H187.321ZM189.793 174.71C189.747 174.252 189.552 173.896 189.207 173.642C188.863 173.388 188.395 173.261 187.804 173.261C187.402 173.261 187.063 173.318 186.787 173.432C186.51 173.542 186.298 173.695 186.151 173.892C186.007 174.089 185.935 174.312 185.935 174.562C185.927 174.771 185.971 174.953 186.065 175.108C186.164 175.263 186.298 175.398 186.469 175.511C186.639 175.621 186.836 175.718 187.06 175.801C187.283 175.881 187.522 175.949 187.776 176.006L188.821 176.256C189.329 176.369 189.795 176.521 190.219 176.71C190.643 176.9 191.01 177.133 191.321 177.409C191.632 177.686 191.872 178.011 192.043 178.386C192.217 178.761 192.306 179.191 192.31 179.676C192.306 180.388 192.124 181.006 191.764 181.528C191.408 182.047 190.893 182.451 190.219 182.739C189.548 183.023 188.74 183.165 187.793 183.165C186.853 183.165 186.035 183.021 185.338 182.733C184.645 182.445 184.103 182.019 183.713 181.455C183.327 180.886 183.124 180.184 183.105 179.347H185.486C185.512 179.737 185.624 180.062 185.821 180.324C186.022 180.581 186.289 180.777 186.622 180.909C186.959 181.038 187.34 181.102 187.764 181.102C188.181 181.102 188.543 181.042 188.849 180.92C189.16 180.799 189.401 180.631 189.571 180.415C189.741 180.199 189.827 179.951 189.827 179.67C189.827 179.409 189.749 179.189 189.594 179.011C189.442 178.833 189.219 178.682 188.923 178.557C188.632 178.432 188.274 178.318 187.849 178.216L186.582 177.898C185.601 177.659 184.827 177.286 184.259 176.778C183.69 176.271 183.408 175.587 183.412 174.727C183.408 174.023 183.596 173.407 183.974 172.881C184.357 172.354 184.882 171.943 185.548 171.648C186.215 171.352 186.973 171.205 187.821 171.205C188.685 171.205 189.438 171.352 190.082 171.648C190.73 171.943 191.234 172.354 191.594 172.881C191.954 173.407 192.139 174.017 192.151 174.71H189.793ZM193.896 183V181.227L198.038 177.392C198.391 177.051 198.686 176.744 198.925 176.472C199.167 176.199 199.351 175.932 199.476 175.67C199.601 175.405 199.663 175.119 199.663 174.812C199.663 174.472 199.586 174.178 199.43 173.932C199.275 173.682 199.063 173.491 198.794 173.358C198.525 173.222 198.22 173.153 197.879 173.153C197.523 173.153 197.213 173.225 196.947 173.369C196.682 173.513 196.478 173.72 196.334 173.989C196.19 174.258 196.118 174.578 196.118 174.949H193.783C193.783 174.187 193.955 173.527 194.3 172.966C194.644 172.405 195.127 171.972 195.749 171.665C196.37 171.358 197.086 171.205 197.896 171.205C198.73 171.205 199.455 171.352 200.072 171.648C200.694 171.939 201.177 172.345 201.521 172.864C201.866 173.383 202.038 173.977 202.038 174.648C202.038 175.087 201.951 175.521 201.777 175.949C201.607 176.377 201.302 176.852 200.862 177.375C200.423 177.894 199.804 178.517 199.004 179.244L197.305 180.909V180.989H202.192V183H193.896ZM204.435 183L209.259 173.455V173.375H203.639V171.364H211.804V173.403L206.974 183H204.435ZM217.803 183.256C216.825 183.252 215.984 183.011 215.28 182.534C214.579 182.057 214.039 181.366 213.661 180.46C213.286 179.555 213.1 178.466 213.104 177.193C213.104 175.924 213.291 174.843 213.666 173.949C214.045 173.055 214.585 172.375 215.286 171.909C215.99 171.439 216.829 171.205 217.803 171.205C218.776 171.205 219.613 171.439 220.314 171.909C221.018 172.379 221.56 173.061 221.939 173.955C222.318 174.845 222.505 175.924 222.501 177.193C222.501 178.47 222.312 179.561 221.933 180.466C221.558 181.371 221.02 182.062 220.32 182.54C219.619 183.017 218.78 183.256 217.803 183.256ZM217.803 181.216C218.469 181.216 219.001 180.881 219.399 180.21C219.797 179.54 219.994 178.534 219.99 177.193C219.99 176.311 219.899 175.576 219.717 174.989C219.539 174.402 219.286 173.96 218.956 173.665C218.63 173.369 218.246 173.222 217.803 173.222C217.14 173.222 216.609 173.553 216.212 174.216C215.814 174.879 215.613 175.871 215.609 177.193C215.609 178.087 215.698 178.833 215.876 179.432C216.058 180.027 216.314 180.473 216.643 180.773C216.973 181.068 217.359 181.216 217.803 181.216ZM228.358 177.182C228.358 178.595 228.169 179.894 227.79 181.08C227.415 182.265 226.839 183.364 226.062 184.375H223.75C224.045 184 224.32 183.542 224.574 183C224.828 182.458 225.049 181.867 225.239 181.227C225.428 180.583 225.576 179.917 225.682 179.227C225.788 178.538 225.841 177.856 225.841 177.182C225.841 176.284 225.748 175.379 225.562 174.466C225.381 173.549 225.131 172.701 224.812 171.92C224.498 171.136 224.144 170.494 223.75 169.994H226.062C226.839 171.006 227.415 172.104 227.79 173.29C228.169 174.475 228.358 175.773 228.358 177.182Z" fill="#101010"/>
<path d="M341.886 181.119C341.497 181.114 341.114 181.043 340.736 180.906C340.361 180.77 340.02 180.543 339.713 180.224C339.406 179.906 339.161 179.479 338.976 178.942C338.794 178.405 338.703 177.734 338.703 176.93C338.703 176.169 338.778 175.493 338.929 174.902C339.082 174.311 339.303 173.812 339.589 173.406C339.876 172.997 340.223 172.686 340.629 172.473C341.036 172.26 341.491 172.153 341.997 172.153C342.517 172.153 342.979 172.256 343.382 172.46C343.786 172.665 344.112 172.947 344.362 173.308C344.615 173.669 344.776 174.08 344.844 174.54H343.544C343.456 174.176 343.281 173.879 343.02 173.649C342.759 173.419 342.418 173.304 341.997 173.304C341.358 173.304 340.859 173.582 340.501 174.139C340.146 174.696 339.967 175.47 339.964 176.462H340.028C340.179 176.214 340.364 176.004 340.582 175.831C340.804 175.655 341.051 175.52 341.324 175.426C341.599 175.33 341.889 175.281 342.193 175.281C342.699 175.281 343.156 175.405 343.565 175.652C343.977 175.896 344.305 176.234 344.55 176.666C344.794 177.098 344.916 177.592 344.916 178.149C344.916 178.706 344.79 179.21 344.537 179.662C344.287 180.114 343.935 180.472 343.48 180.736C343.026 180.997 342.494 181.125 341.886 181.119ZM341.882 180.011C342.217 180.011 342.517 179.929 342.781 179.764C343.045 179.599 343.254 179.378 343.408 179.099C343.561 178.821 343.638 178.51 343.638 178.166C343.638 177.831 343.563 177.526 343.412 177.25C343.264 176.974 343.06 176.756 342.798 176.594C342.54 176.432 342.244 176.351 341.912 176.351C341.659 176.351 341.425 176.399 341.209 176.496C340.996 176.592 340.808 176.726 340.646 176.896C340.484 177.067 340.357 177.263 340.263 177.484C340.172 177.703 340.126 177.935 340.126 178.179C340.126 178.506 340.202 178.808 340.352 179.087C340.506 179.365 340.714 179.589 340.979 179.76C341.246 179.928 341.547 180.011 341.882 180.011ZM346.762 181L350.572 173.466V173.402H346.166V172.273H351.936V173.44L348.139 181H346.762ZM357.973 179.364V178.903C357.973 178.574 358.041 178.273 358.178 178C358.317 177.724 358.518 177.504 358.783 177.339C359.05 177.172 359.372 177.088 359.75 177.088C360.136 177.088 360.46 177.17 360.722 177.335C360.983 177.5 361.18 177.72 361.314 177.996C361.45 178.271 361.518 178.574 361.518 178.903V179.364C361.518 179.693 361.45 179.996 361.314 180.271C361.178 180.544 360.977 180.764 360.713 180.932C360.452 181.097 360.131 181.179 359.75 181.179C359.366 181.179 359.043 181.097 358.778 180.932C358.514 180.764 358.314 180.544 358.178 180.271C358.041 179.996 357.973 179.693 357.973 179.364ZM358.966 178.903V179.364C358.966 179.608 359.024 179.83 359.141 180.028C359.257 180.227 359.46 180.327 359.75 180.327C360.037 180.327 360.237 180.227 360.351 180.028C360.464 179.83 360.521 179.608 360.521 179.364V178.903C360.521 178.659 360.466 178.437 360.355 178.239C360.247 178.04 360.045 177.94 359.75 177.94C359.466 177.94 359.264 178.04 359.145 178.239C359.026 178.437 358.966 178.659 358.966 178.903ZM353.584 174.369V173.909C353.584 173.58 353.652 173.277 353.788 173.001C353.928 172.726 354.129 172.506 354.393 172.341C354.661 172.176 354.983 172.094 355.361 172.094C355.747 172.094 356.071 172.176 356.332 172.341C356.594 172.506 356.791 172.726 356.925 173.001C357.058 173.277 357.125 173.58 357.125 173.909V174.369C357.125 174.699 357.057 175.001 356.92 175.277C356.787 175.55 356.588 175.77 356.324 175.938C356.063 176.102 355.741 176.185 355.361 176.185C354.974 176.185 354.649 176.102 354.385 175.938C354.124 175.77 353.925 175.55 353.788 175.277C353.652 175.001 353.584 174.699 353.584 174.369ZM354.581 173.909V174.369C354.581 174.614 354.638 174.835 354.751 175.034C354.868 175.233 355.071 175.332 355.361 175.332C355.645 175.332 355.844 175.233 355.957 175.034C356.074 174.835 356.132 174.614 356.132 174.369V173.909C356.132 173.665 356.077 173.443 355.966 173.244C355.855 173.045 355.653 172.946 355.361 172.946C355.077 172.946 354.875 173.045 354.756 173.244C354.639 173.443 354.581 173.665 354.581 173.909ZM353.989 181L359.989 172.273H361.007L355.007 181H353.989ZM366.65 181V172.273H372.062V173.406H367.967V176.065H371.674V177.195H367.967V181H366.65ZM377.315 178.286V174.455H378.594V181H377.341V179.866H377.273C377.122 180.216 376.881 180.507 376.548 180.74C376.219 180.97 375.808 181.085 375.317 181.085C374.896 181.085 374.524 180.993 374.2 180.808C373.879 180.621 373.626 180.344 373.442 179.977C373.26 179.611 373.169 179.158 373.169 178.618V174.455H374.443V178.464C374.443 178.911 374.567 179.266 374.814 179.53C375.061 179.794 375.382 179.926 375.777 179.926C376.016 179.926 376.253 179.866 376.489 179.747C376.727 179.628 376.925 179.447 377.081 179.206C377.24 178.964 377.318 178.658 377.315 178.286ZM381.58 177.114V181H380.306V174.455H381.529V175.52H381.61C381.76 175.173 381.996 174.895 382.317 174.685C382.641 174.474 383.049 174.369 383.54 174.369C383.986 174.369 384.377 174.463 384.712 174.651C385.047 174.835 385.307 175.111 385.492 175.477C385.676 175.844 385.769 176.297 385.769 176.837V181H384.495V176.99C384.495 176.516 384.371 176.145 384.124 175.878C383.877 175.608 383.537 175.473 383.105 175.473C382.81 175.473 382.547 175.537 382.317 175.665C382.09 175.793 381.909 175.98 381.776 176.227C381.645 176.472 381.58 176.767 381.58 177.114ZM389.928 181.128C389.4 181.128 388.928 180.993 388.513 180.723C388.101 180.45 387.777 180.062 387.542 179.56C387.309 179.054 387.192 178.447 387.192 177.74C387.192 177.033 387.31 176.428 387.546 175.925C387.784 175.422 388.111 175.037 388.526 174.77C388.941 174.503 389.411 174.369 389.936 174.369C390.343 174.369 390.669 174.438 390.917 174.574C391.167 174.707 391.36 174.864 391.496 175.043C391.635 175.222 391.743 175.379 391.82 175.516H391.897V172.273H393.171V181H391.926V179.982H391.82C391.743 180.121 391.632 180.28 391.488 180.459C391.346 180.638 391.15 180.794 390.9 180.928C390.65 181.061 390.326 181.128 389.928 181.128ZM390.209 180.041C390.576 180.041 390.885 179.945 391.138 179.751C391.394 179.555 391.587 179.284 391.718 178.938C391.851 178.591 391.918 178.187 391.918 177.727C391.918 177.273 391.853 176.875 391.722 176.534C391.591 176.193 391.4 175.928 391.147 175.737C390.894 175.547 390.581 175.452 390.209 175.452C389.826 175.452 389.506 175.551 389.25 175.75C388.995 175.949 388.801 176.22 388.671 176.564C388.543 176.908 388.479 177.295 388.479 177.727C388.479 178.165 388.544 178.558 388.675 178.908C388.806 179.257 388.999 179.534 389.255 179.739C389.513 179.94 389.831 180.041 390.209 180.041ZM397.81 181.132C397.165 181.132 396.61 180.994 396.144 180.719C395.681 180.44 395.323 180.05 395.07 179.547C394.82 179.041 394.695 178.449 394.695 177.77C394.695 177.099 394.82 176.509 395.07 175.997C395.323 175.486 395.675 175.087 396.127 174.8C396.582 174.513 397.113 174.369 397.721 174.369C398.09 174.369 398.448 174.43 398.795 174.553C399.141 174.675 399.452 174.866 399.728 175.128C400.004 175.389 400.221 175.729 400.38 176.146C400.539 176.561 400.619 177.065 400.619 177.659V178.111H395.415V177.156H399.37C399.37 176.821 399.302 176.524 399.165 176.266C399.029 176.004 398.837 175.798 398.59 175.648C398.346 175.497 398.059 175.422 397.729 175.422C397.371 175.422 397.059 175.51 396.792 175.686C396.528 175.859 396.323 176.087 396.178 176.368C396.036 176.646 395.965 176.949 395.965 177.276V178.021C395.965 178.459 396.042 178.831 396.195 179.138C396.352 179.445 396.569 179.679 396.847 179.841C397.126 180 397.451 180.08 397.823 180.08C398.065 180.08 398.285 180.045 398.484 179.977C398.683 179.906 398.854 179.801 398.999 179.662C399.144 179.523 399.255 179.351 399.332 179.146L400.538 179.364C400.441 179.719 400.268 180.03 400.018 180.297C399.771 180.561 399.46 180.767 399.085 180.915C398.712 181.06 398.288 181.132 397.81 181.132ZM404.483 181.128C403.954 181.128 403.483 180.993 403.068 180.723C402.656 180.45 402.332 180.062 402.096 179.56C401.863 179.054 401.747 178.447 401.747 177.74C401.747 177.033 401.865 176.428 402.1 175.925C402.339 175.422 402.666 175.037 403.081 174.77C403.495 174.503 403.966 174.369 404.491 174.369C404.897 174.369 405.224 174.438 405.471 174.574C405.721 174.707 405.914 174.864 406.051 175.043C406.19 175.222 406.298 175.379 406.375 175.516H406.451V172.273H407.725V181H406.481V179.982H406.375C406.298 180.121 406.187 180.28 406.042 180.459C405.9 180.638 405.704 180.794 405.454 180.928C405.204 181.061 404.88 181.128 404.483 181.128ZM404.764 180.041C405.13 180.041 405.44 179.945 405.693 179.751C405.949 179.555 406.142 179.284 406.272 178.938C406.406 178.591 406.473 178.187 406.473 177.727C406.473 177.273 406.407 176.875 406.277 176.534C406.146 176.193 405.954 175.928 405.701 175.737C405.449 175.547 405.136 175.452 404.764 175.452C404.38 175.452 404.061 175.551 403.805 175.75C403.549 175.949 403.356 176.22 403.225 176.564C403.098 176.908 403.034 177.295 403.034 177.727C403.034 178.165 403.099 178.558 403.23 178.908C403.36 179.257 403.554 179.534 403.809 179.739C404.068 179.94 404.386 180.041 404.764 180.041Z" fill="#C1272D"/>
<rect x="97" y="199" width="312" height="14" rx="7" fill="#D9D9D9"/>
<rect x="97" y="199" width="220" height="14" rx="7" fill="#C1272D"/>
<path d="M97 233L409 233" stroke="black" stroke-opacity="0.12"/>
<path d="M105.003 257.273V266H103.793L99.3565 259.599H99.2756V266H97.9588V257.273H99.1776L103.618 263.682H103.699V257.273H105.003ZM106.924 266V257.273H112.336V258.406H108.24V261.065H111.948V262.195H108.24V266H106.924ZM113.525 258.406V257.273H120.279V258.406H117.556V266H116.243V258.406H113.525ZM125.683 261.053L124.528 261.257C124.48 261.109 124.403 260.969 124.298 260.835C124.196 260.702 124.057 260.592 123.881 260.507C123.705 260.422 123.484 260.379 123.22 260.379C122.859 260.379 122.558 260.46 122.317 260.622C122.075 260.781 121.955 260.987 121.955 261.24C121.955 261.459 122.036 261.635 122.197 261.768C122.359 261.902 122.621 262.011 122.982 262.097L124.021 262.335C124.624 262.474 125.072 262.689 125.368 262.979C125.663 263.268 125.811 263.645 125.811 264.108C125.811 264.5 125.697 264.849 125.47 265.156C125.246 265.46 124.932 265.699 124.528 265.872C124.128 266.045 123.663 266.132 123.135 266.132C122.402 266.132 121.804 265.976 121.341 265.663C120.878 265.348 120.594 264.901 120.489 264.321L121.72 264.134C121.797 264.455 121.955 264.697 122.193 264.862C122.432 265.024 122.743 265.105 123.126 265.105C123.544 265.105 123.878 265.018 124.128 264.845C124.378 264.669 124.503 264.455 124.503 264.202C124.503 263.997 124.426 263.825 124.273 263.686C124.122 263.547 123.891 263.442 123.578 263.371L122.47 263.128C121.859 262.989 121.408 262.767 121.115 262.463C120.825 262.159 120.68 261.774 120.68 261.308C120.68 260.922 120.788 260.584 121.004 260.294C121.22 260.004 121.518 259.778 121.899 259.616C122.28 259.452 122.716 259.369 123.207 259.369C123.915 259.369 124.472 259.523 124.878 259.83C125.284 260.134 125.553 260.541 125.683 261.053ZM131.227 266H129.83L132.97 257.273H134.491L137.632 266H136.234L133.767 258.858H133.699L131.227 266ZM131.462 262.582H135.996V263.69H131.462V262.582ZM143.569 259.455L141.196 266H139.832L137.454 259.455H138.822L140.48 264.491H140.548L142.201 259.455H143.569ZM146.484 266.145C146.069 266.145 145.694 266.068 145.359 265.915C145.024 265.759 144.758 265.533 144.562 265.237C144.369 264.942 144.272 264.58 144.272 264.151C144.272 263.781 144.343 263.477 144.485 263.239C144.627 263 144.819 262.811 145.061 262.672C145.302 262.533 145.572 262.428 145.87 262.357C146.169 262.286 146.473 262.232 146.782 262.195C147.174 262.149 147.493 262.112 147.737 262.084C147.981 262.053 148.159 262.003 148.27 261.935C148.38 261.866 148.436 261.756 148.436 261.602V261.572C148.436 261.2 148.331 260.912 148.12 260.707C147.913 260.503 147.603 260.401 147.191 260.401C146.762 260.401 146.424 260.496 146.177 260.686C145.933 260.874 145.764 261.082 145.67 261.312L144.473 261.04C144.615 260.642 144.822 260.321 145.095 260.077C145.37 259.83 145.687 259.651 146.045 259.54C146.403 259.426 146.779 259.369 147.174 259.369C147.436 259.369 147.713 259.401 148.005 259.463C148.301 259.523 148.576 259.634 148.832 259.795C149.091 259.957 149.302 260.189 149.467 260.49C149.632 260.788 149.714 261.176 149.714 261.653V266H148.47V265.105H148.419C148.336 265.27 148.213 265.432 148.048 265.591C147.883 265.75 147.672 265.882 147.413 265.987C147.154 266.092 146.845 266.145 146.484 266.145ZM146.761 265.122C147.113 265.122 147.414 265.053 147.664 264.913C147.917 264.774 148.109 264.592 148.24 264.368C148.373 264.141 148.44 263.898 148.44 263.639V262.795C148.395 262.841 148.306 262.884 148.176 262.923C148.048 262.96 147.902 262.993 147.737 263.021C147.572 263.047 147.412 263.071 147.255 263.094C147.099 263.114 146.968 263.131 146.863 263.145C146.616 263.176 146.39 263.229 146.186 263.303C145.984 263.376 145.822 263.483 145.7 263.622C145.581 263.759 145.521 263.94 145.521 264.168C145.521 264.483 145.637 264.722 145.87 264.884C146.103 265.043 146.4 265.122 146.761 265.122ZM151.411 266V259.455H152.685V266H151.411ZM152.055 258.445C151.833 258.445 151.643 258.371 151.484 258.223C151.327 258.072 151.249 257.893 151.249 257.686C151.249 257.476 151.327 257.297 151.484 257.149C151.643 256.999 151.833 256.923 152.055 256.923C152.276 256.923 152.465 256.999 152.621 257.149C152.781 257.297 152.86 257.476 152.86 257.686C152.86 257.893 152.781 258.072 152.621 258.223C152.465 258.371 152.276 258.445 152.055 258.445ZM155.674 257.273V266H154.4V257.273H155.674ZM159.293 266.145C158.878 266.145 158.503 266.068 158.168 265.915C157.832 265.759 157.567 265.533 157.371 265.237C157.178 264.942 157.081 264.58 157.081 264.151C157.081 263.781 157.152 263.477 157.294 263.239C157.436 263 157.628 262.811 157.869 262.672C158.111 262.533 158.381 262.428 158.679 262.357C158.977 262.286 159.281 262.232 159.591 262.195C159.983 262.149 160.301 262.112 160.545 262.084C160.79 262.053 160.967 262.003 161.078 261.935C161.189 261.866 161.244 261.756 161.244 261.602V261.572C161.244 261.2 161.139 260.912 160.929 260.707C160.722 260.503 160.412 260.401 160 260.401C159.571 260.401 159.233 260.496 158.986 260.686C158.741 260.874 158.572 261.082 158.479 261.312L157.281 261.04C157.423 260.642 157.631 260.321 157.903 260.077C158.179 259.83 158.496 259.651 158.854 259.54C159.212 259.426 159.588 259.369 159.983 259.369C160.244 259.369 160.521 259.401 160.814 259.463C161.109 259.523 161.385 259.634 161.641 259.795C161.899 259.957 162.111 260.189 162.276 260.49C162.44 260.788 162.523 261.176 162.523 261.653V266H161.278V265.105H161.227C161.145 265.27 161.021 265.432 160.857 265.591C160.692 265.75 160.48 265.882 160.222 265.987C159.963 266.092 159.653 266.145 159.293 266.145ZM159.57 265.122C159.922 265.122 160.223 265.053 160.473 264.913C160.726 264.774 160.918 264.592 161.048 264.368C161.182 264.141 161.249 263.898 161.249 263.639V262.795C161.203 262.841 161.115 262.884 160.984 262.923C160.857 262.96 160.71 262.993 160.545 263.021C160.381 263.047 160.22 263.071 160.064 263.094C159.908 263.114 159.777 263.131 159.672 263.145C159.425 263.176 159.199 263.229 158.994 263.303C158.793 263.376 158.631 263.483 158.509 263.622C158.389 263.759 158.33 263.94 158.33 264.168C158.33 264.483 158.446 264.722 158.679 264.884C158.912 265.043 159.209 265.122 159.57 265.122ZM164.322 266V257.273H165.596V260.516H165.673C165.747 260.379 165.853 260.222 165.993 260.043C166.132 259.864 166.325 259.707 166.572 259.574C166.819 259.438 167.146 259.369 167.552 259.369C168.081 259.369 168.552 259.503 168.967 259.77C169.382 260.037 169.707 260.422 169.943 260.925C170.181 261.428 170.301 262.033 170.301 262.74C170.301 263.447 170.183 264.054 169.947 264.56C169.711 265.062 169.387 265.45 168.975 265.723C168.564 265.993 168.093 266.128 167.565 266.128C167.167 266.128 166.842 266.061 166.589 265.928C166.339 265.794 166.143 265.638 166.001 265.459C165.859 265.28 165.75 265.121 165.673 264.982H165.566V266H164.322ZM165.571 262.727C165.571 263.187 165.637 263.591 165.771 263.938C165.904 264.284 166.098 264.555 166.35 264.751C166.603 264.945 166.913 265.041 167.279 265.041C167.66 265.041 167.978 264.94 168.234 264.739C168.49 264.534 168.683 264.257 168.814 263.908C168.947 263.558 169.014 263.165 169.014 262.727C169.014 262.295 168.949 261.908 168.818 261.564C168.69 261.22 168.497 260.949 168.238 260.75C167.983 260.551 167.663 260.452 167.279 260.452C166.91 260.452 166.598 260.547 166.342 260.737C166.089 260.928 165.897 261.193 165.767 261.534C165.636 261.875 165.571 262.273 165.571 262.727ZM173.006 257.273V266H171.732V257.273H173.006ZM177.541 266.132C176.896 266.132 176.341 265.994 175.875 265.719C175.412 265.44 175.054 265.05 174.801 264.547C174.551 264.041 174.426 263.449 174.426 262.77C174.426 262.099 174.551 261.509 174.801 260.997C175.054 260.486 175.406 260.087 175.858 259.8C176.312 259.513 176.843 259.369 177.451 259.369C177.821 259.369 178.179 259.43 178.525 259.553C178.872 259.675 179.183 259.866 179.458 260.128C179.734 260.389 179.951 260.729 180.11 261.146C180.27 261.561 180.349 262.065 180.349 262.659V263.111H175.146V262.156H179.1C179.1 261.821 179.032 261.524 178.896 261.266C178.76 261.004 178.568 260.798 178.321 260.648C178.076 260.497 177.789 260.422 177.46 260.422C177.102 260.422 176.789 260.51 176.522 260.686C176.258 260.859 176.054 261.087 175.909 261.368C175.767 261.646 175.696 261.949 175.696 262.276V263.021C175.696 263.459 175.772 263.831 175.926 264.138C176.082 264.445 176.299 264.679 176.578 264.841C176.856 265 177.181 265.08 177.554 265.08C177.795 265.08 178.015 265.045 178.214 264.977C178.413 264.906 178.585 264.801 178.73 264.662C178.875 264.523 178.985 264.351 179.062 264.146L180.268 264.364C180.172 264.719 179.998 265.03 179.748 265.297C179.501 265.561 179.19 265.767 178.815 265.915C178.443 266.06 178.018 266.132 177.541 266.132Z" fill="black"/>
<path d="M391.504 257.273V266H389.659V259.024H389.608L387.609 260.277V258.641L389.77 257.273H391.504ZM396.766 266.119C396.164 266.119 395.627 266.009 395.155 265.787C394.686 265.565 394.314 265.26 394.039 264.871C393.763 264.482 393.62 264.036 393.608 263.533H395.398C395.418 263.871 395.56 264.145 395.824 264.355C396.088 264.565 396.402 264.67 396.766 264.67C397.056 264.67 397.311 264.607 397.533 264.479C397.757 264.348 397.932 264.168 398.057 263.938C398.185 263.705 398.249 263.437 398.249 263.136C398.249 262.83 398.184 262.56 398.053 262.327C397.925 262.094 397.748 261.912 397.52 261.781C397.293 261.651 397.033 261.584 396.74 261.581C396.485 261.581 396.236 261.634 395.995 261.739C395.756 261.844 395.57 261.987 395.436 262.169L393.796 261.875L394.209 257.273H399.544V258.781H395.73L395.505 260.967H395.556C395.709 260.751 395.941 260.572 396.25 260.43C396.56 260.288 396.907 260.217 397.29 260.217C397.816 260.217 398.284 260.341 398.696 260.588C399.108 260.835 399.434 261.175 399.672 261.607C399.911 262.036 400.029 262.53 400.026 263.089C400.029 263.678 399.892 264.2 399.617 264.658C399.344 265.112 398.962 265.47 398.471 265.732C397.982 265.99 397.414 266.119 396.766 266.119ZM404.662 266.119C404.213 266.116 403.78 266.041 403.363 265.893C402.948 265.746 402.576 265.506 402.246 265.173C401.917 264.841 401.655 264.401 401.462 263.852C401.272 263.304 401.176 262.631 401.176 261.832C401.179 261.099 401.263 260.445 401.428 259.868C401.596 259.288 401.834 258.797 402.144 258.393C402.456 257.99 402.83 257.683 403.265 257.473C403.699 257.26 404.186 257.153 404.726 257.153C405.309 257.153 405.823 257.267 406.269 257.494C406.715 257.719 407.073 258.024 407.343 258.411C407.615 258.797 407.78 259.23 407.837 259.71H406.017C405.946 259.406 405.797 259.168 405.57 258.994C405.343 258.821 405.061 258.734 404.726 258.734C404.158 258.734 403.726 258.982 403.431 259.476C403.138 259.97 402.989 260.642 402.983 261.491H403.043C403.174 261.233 403.35 261.013 403.571 260.831C403.796 260.646 404.05 260.506 404.334 260.409C404.621 260.31 404.924 260.26 405.242 260.26C405.759 260.26 406.219 260.382 406.623 260.626C407.026 260.868 407.344 261.2 407.577 261.624C407.81 262.047 407.926 262.531 407.926 263.077C407.926 263.668 407.789 264.193 407.513 264.653C407.24 265.114 406.858 265.474 406.367 265.736C405.878 265.994 405.31 266.122 404.662 266.119ZM404.654 264.67C404.938 264.67 405.192 264.602 405.417 264.466C405.641 264.33 405.817 264.145 405.945 263.912C406.073 263.679 406.137 263.418 406.137 263.128C406.137 262.838 406.073 262.578 405.945 262.348C405.82 262.118 405.647 261.935 405.425 261.798C405.203 261.662 404.951 261.594 404.667 261.594C404.453 261.594 404.256 261.634 404.074 261.713C403.895 261.793 403.738 261.903 403.601 262.045C403.468 262.187 403.363 262.352 403.286 262.54C403.209 262.724 403.171 262.922 403.171 263.132C403.171 263.413 403.235 263.67 403.363 263.903C403.493 264.136 403.669 264.322 403.891 264.462C404.115 264.601 404.37 264.67 404.654 264.67Z" fill="black"/>
<path d="M97.9588 294V285.273H101.07C101.749 285.273 102.311 285.396 102.757 285.643C103.203 285.891 103.537 286.229 103.759 286.658C103.98 287.084 104.091 287.564 104.091 288.098C104.091 288.635 103.979 289.118 103.754 289.547C103.533 289.973 103.197 290.311 102.749 290.561C102.303 290.808 101.741 290.932 101.065 290.932H98.9261V289.815H100.946C101.375 289.815 101.723 289.741 101.99 289.594C102.257 289.443 102.453 289.239 102.578 288.98C102.703 288.722 102.766 288.428 102.766 288.098C102.766 287.768 102.703 287.476 102.578 287.22C102.453 286.964 102.256 286.764 101.986 286.619C101.719 286.474 101.366 286.402 100.929 286.402H99.2756V294H97.9588ZM105.532 294V287.455H106.764V288.494H106.832C106.951 288.142 107.162 287.865 107.463 287.663C107.767 287.459 108.11 287.357 108.494 287.357C108.574 287.357 108.667 287.359 108.775 287.365C108.886 287.371 108.973 287.378 109.035 287.386V288.605C108.984 288.591 108.893 288.575 108.762 288.558C108.632 288.538 108.501 288.528 108.37 288.528C108.069 288.528 107.801 288.592 107.565 288.72C107.332 288.845 107.147 289.02 107.011 289.244C106.875 289.466 106.806 289.719 106.806 290.003V294H105.532ZM110.138 294V287.455H111.412V294H110.138ZM110.781 286.445C110.56 286.445 110.369 286.371 110.21 286.223C110.054 286.072 109.976 285.893 109.976 285.686C109.976 285.476 110.054 285.297 110.21 285.149C110.369 284.999 110.56 284.923 110.781 284.923C111.003 284.923 111.192 284.999 111.348 285.149C111.507 285.297 111.587 285.476 111.587 285.686C111.587 285.893 111.507 286.072 111.348 286.223C111.192 286.371 111.003 286.445 110.781 286.445ZM115.883 294.132C115.25 294.132 114.704 293.989 114.247 293.702C113.792 293.412 113.443 293.013 113.199 292.504C112.954 291.996 112.832 291.413 112.832 290.757C112.832 290.092 112.957 289.506 113.207 288.997C113.457 288.486 113.809 288.087 114.264 287.8C114.718 287.513 115.254 287.369 115.87 287.369C116.368 287.369 116.811 287.462 117.2 287.646C117.589 287.828 117.903 288.084 118.142 288.413C118.383 288.743 118.527 289.128 118.572 289.568H117.332C117.264 289.261 117.108 288.997 116.863 288.776C116.622 288.554 116.298 288.443 115.892 288.443C115.537 288.443 115.225 288.537 114.958 288.724C114.694 288.909 114.488 289.173 114.341 289.517C114.193 289.858 114.119 290.261 114.119 290.727C114.119 291.205 114.191 291.616 114.336 291.963C114.481 292.31 114.686 292.578 114.95 292.768C115.217 292.959 115.531 293.054 115.892 293.054C116.133 293.054 116.352 293.01 116.548 292.922C116.747 292.831 116.913 292.702 117.047 292.534C117.183 292.366 117.278 292.165 117.332 291.929H118.572C118.527 292.352 118.389 292.73 118.159 293.062C117.929 293.395 117.62 293.656 117.234 293.847C116.85 294.037 116.4 294.132 115.883 294.132ZM122.756 294.132C122.111 294.132 121.555 293.994 121.089 293.719C120.626 293.44 120.268 293.05 120.016 292.547C119.766 292.041 119.641 291.449 119.641 290.77C119.641 290.099 119.766 289.509 120.016 288.997C120.268 288.486 120.621 288.087 121.072 287.8C121.527 287.513 122.058 287.369 122.666 287.369C123.036 287.369 123.393 287.43 123.74 287.553C124.087 287.675 124.398 287.866 124.673 288.128C124.949 288.389 125.166 288.729 125.325 289.146C125.484 289.561 125.564 290.065 125.564 290.659V291.111H120.361V290.156H124.315C124.315 289.821 124.247 289.524 124.111 289.266C123.974 289.004 123.783 288.798 123.536 288.648C123.291 288.497 123.004 288.422 122.675 288.422C122.317 288.422 122.004 288.51 121.737 288.686C121.473 288.859 121.268 289.087 121.124 289.368C120.982 289.646 120.911 289.949 120.911 290.276V291.021C120.911 291.459 120.987 291.831 121.141 292.138C121.297 292.445 121.514 292.679 121.793 292.841C122.071 293 122.396 293.08 122.768 293.08C123.01 293.08 123.23 293.045 123.429 292.977C123.628 292.906 123.8 292.801 123.945 292.662C124.089 292.523 124.2 292.351 124.277 292.146L125.483 292.364C125.386 292.719 125.213 293.03 124.963 293.297C124.716 293.561 124.405 293.767 124.03 293.915C123.658 294.06 123.233 294.132 122.756 294.132ZM130.256 294V285.273H133.366C134.045 285.273 134.608 285.396 135.054 285.643C135.5 285.891 135.834 286.229 136.055 286.658C136.277 287.084 136.388 287.564 136.388 288.098C136.388 288.635 136.276 289.118 136.051 289.547C135.83 289.973 135.494 290.311 135.045 290.561C134.599 290.808 134.038 290.932 133.362 290.932H131.223V289.815H133.243C133.672 289.815 134.02 289.741 134.287 289.594C134.554 289.443 134.75 289.239 134.875 288.98C135 288.722 135.062 288.428 135.062 288.098C135.062 287.768 135 287.476 134.875 287.22C134.75 286.964 134.553 286.764 134.283 286.619C134.016 286.474 133.663 286.402 133.226 286.402H131.572V294H130.256ZM140.568 294.132C139.923 294.132 139.368 293.994 138.902 293.719C138.439 293.44 138.081 293.05 137.828 292.547C137.578 292.041 137.453 291.449 137.453 290.77C137.453 290.099 137.578 289.509 137.828 288.997C138.081 288.486 138.433 288.087 138.885 287.8C139.339 287.513 139.871 287.369 140.479 287.369C140.848 287.369 141.206 287.43 141.553 287.553C141.899 287.675 142.21 287.866 142.486 288.128C142.761 288.389 142.979 288.729 143.138 289.146C143.297 289.561 143.376 290.065 143.376 290.659V291.111H138.173V290.156H142.128C142.128 289.821 142.06 289.524 141.923 289.266C141.787 289.004 141.595 288.798 141.348 288.648C141.104 288.497 140.817 288.422 140.487 288.422C140.129 288.422 139.817 288.51 139.55 288.686C139.286 288.859 139.081 289.087 138.936 289.368C138.794 289.646 138.723 289.949 138.723 290.276V291.021C138.723 291.459 138.8 291.831 138.953 292.138C139.109 292.445 139.327 292.679 139.605 292.841C139.884 293 140.209 293.08 140.581 293.08C140.822 293.08 141.043 293.045 141.241 292.977C141.44 292.906 141.612 292.801 141.757 292.662C141.902 292.523 142.013 292.351 142.089 292.146L143.295 292.364C143.199 292.719 143.026 293.03 142.776 293.297C142.528 293.561 142.217 293.767 141.842 293.915C141.47 294.06 141.045 294.132 140.568 294.132ZM144.79 294V287.455H146.022V288.494H146.09C146.209 288.142 146.419 287.865 146.721 287.663C147.025 287.459 147.368 287.357 147.752 287.357C147.831 287.357 147.925 287.359 148.033 287.365C148.144 287.371 148.23 287.378 148.293 287.386V288.605C148.242 288.591 148.151 288.575 148.02 288.558C147.89 288.538 147.759 288.528 147.628 288.528C147.327 288.528 147.059 288.592 146.823 288.72C146.59 288.845 146.405 289.02 146.269 289.244C146.132 289.466 146.064 289.719 146.064 290.003V294H144.79ZM159.718 285.273V294H158.507L154.071 287.599H153.99V294H152.674V285.273H153.892L158.333 291.682H158.414V285.273H159.718ZM161.638 294V285.273H167.05V286.406H162.955V289.065H166.663V290.195H162.955V294H161.638ZM168.239 286.406V285.273H174.994V286.406H172.271V294H170.958V286.406H168.239Z" fill="black"/>
<path d="M342.885 288.46V289.312H334.192V288.46H342.885ZM342.885 290.301V291.153H334.192V290.301H342.885ZM342.19 285.273V294H340.597L336.804 288.507H336.736V294H334.895V285.273H336.51L340.281 290.761H340.354V285.273H342.19ZM347.586 285.273V294H345.741V287.024H345.69L343.691 288.277V286.641L345.852 285.273H347.586ZM353.082 294.192C352.349 294.189 351.719 294.009 351.19 293.651C350.665 293.293 350.26 292.774 349.976 292.095C349.695 291.416 349.555 290.599 349.558 289.645C349.558 288.693 349.699 287.882 349.98 287.212C350.264 286.541 350.669 286.031 351.195 285.682C351.723 285.33 352.352 285.153 353.082 285.153C353.813 285.153 354.44 285.33 354.966 285.682C355.494 286.034 355.901 286.545 356.185 287.216C356.469 287.884 356.609 288.693 356.607 289.645C356.607 290.602 356.464 291.42 356.18 292.099C355.899 292.778 355.496 293.297 354.97 293.655C354.445 294.013 353.815 294.192 353.082 294.192ZM353.082 292.662C353.582 292.662 353.982 292.411 354.28 291.908C354.578 291.405 354.726 290.651 354.723 289.645C354.723 288.983 354.655 288.432 354.518 287.991C354.385 287.551 354.195 287.22 353.947 286.999C353.703 286.777 353.415 286.666 353.082 286.666C352.585 286.666 352.188 286.915 351.889 287.412C351.591 287.909 351.44 288.653 351.438 289.645C351.438 290.315 351.504 290.875 351.638 291.324C351.774 291.77 351.966 292.105 352.213 292.33C352.46 292.551 352.75 292.662 353.082 292.662ZM361.344 294.192C360.611 294.189 359.98 294.009 359.452 293.651C358.926 293.293 358.522 292.774 358.238 292.095C357.956 291.416 357.817 290.599 357.82 289.645C357.82 288.693 357.961 287.882 358.242 287.212C358.526 286.541 358.931 286.031 359.456 285.682C359.985 285.33 360.614 285.153 361.344 285.153C362.074 285.153 362.702 285.33 363.228 285.682C363.756 286.034 364.162 286.545 364.446 287.216C364.73 287.884 364.871 288.693 364.868 289.645C364.868 290.602 364.726 291.42 364.442 292.099C364.161 292.778 363.757 293.297 363.232 293.655C362.706 294.013 362.077 294.192 361.344 294.192ZM361.344 292.662C361.844 292.662 362.243 292.411 362.542 291.908C362.84 291.405 362.988 290.651 362.985 289.645C362.985 288.983 362.917 288.432 362.78 287.991C362.647 287.551 362.456 287.22 362.209 286.999C361.965 286.777 361.676 286.666 361.344 286.666C360.847 286.666 360.449 286.915 360.151 287.412C359.853 287.909 359.702 288.653 359.699 289.645C359.699 290.315 359.766 290.875 359.9 291.324C360.036 291.77 360.228 292.105 360.475 292.33C360.722 292.551 361.012 292.662 361.344 292.662ZM367.846 292.116L367.85 289.939H368.114L370.211 287.455H372.295L369.478 290.744H369.048L367.846 292.116ZM366.201 294V285.273H368.016V294H366.201ZM370.292 294L368.366 291.149L369.576 289.866L372.418 294H370.292ZM376.363 289.636C376.363 288.58 376.504 287.607 376.785 286.717C377.069 285.828 377.502 285.004 378.085 284.246H379.819C379.598 284.527 379.392 284.871 379.201 285.277C379.011 285.68 378.845 286.124 378.703 286.607C378.561 287.089 378.45 287.589 378.37 288.107C378.291 288.621 378.251 289.131 378.251 289.636C378.251 290.31 378.319 290.99 378.456 291.678C378.595 292.362 378.782 292.999 379.018 293.587C379.257 294.175 379.524 294.656 379.819 295.031H378.085C377.502 294.273 377.069 293.449 376.785 292.56C376.504 291.67 376.363 290.696 376.363 289.636ZM383.788 295.091V284.182H384.487V295.091H383.788ZM385.641 287.783C385.607 287.439 385.461 287.172 385.202 286.982C384.944 286.791 384.593 286.696 384.15 286.696C383.849 286.696 383.594 286.739 383.387 286.824C383.18 286.906 383.021 287.021 382.91 287.169C382.802 287.317 382.748 287.484 382.748 287.672C382.742 287.828 382.775 287.964 382.846 288.081C382.92 288.197 383.021 288.298 383.148 288.384C383.276 288.466 383.424 288.538 383.592 288.601C383.759 288.661 383.938 288.712 384.129 288.754L384.913 288.942C385.293 289.027 385.643 289.141 385.961 289.283C386.279 289.425 386.555 289.599 386.788 289.807C387.021 290.014 387.201 290.259 387.329 290.54C387.46 290.821 387.526 291.143 387.529 291.507C387.526 292.041 387.39 292.504 387.12 292.896C386.853 293.286 386.467 293.588 385.961 293.804C385.458 294.017 384.852 294.124 384.141 294.124C383.437 294.124 382.823 294.016 382.3 293.8C381.781 293.584 381.374 293.264 381.082 292.841C380.792 292.415 380.64 291.888 380.626 291.26H382.411C382.431 291.553 382.515 291.797 382.663 291.993C382.813 292.186 383.013 292.332 383.263 292.432C383.516 292.528 383.802 292.577 384.12 292.577C384.433 292.577 384.704 292.531 384.934 292.44C385.167 292.349 385.347 292.223 385.475 292.061C385.603 291.899 385.667 291.713 385.667 291.503C385.667 291.307 385.609 291.142 385.492 291.009C385.379 290.875 385.211 290.761 384.989 290.668C384.771 290.574 384.502 290.489 384.184 290.412L383.234 290.173C382.498 289.994 381.917 289.714 381.491 289.334C381.065 288.953 380.853 288.44 380.856 287.795C380.853 287.267 380.994 286.805 381.278 286.411C381.565 286.016 381.958 285.707 382.458 285.486C382.958 285.264 383.526 285.153 384.163 285.153C384.81 285.153 385.376 285.264 385.859 285.486C386.344 285.707 386.722 286.016 386.992 286.411C387.262 286.805 387.401 287.263 387.41 287.783H385.641ZM391.907 294.119C391.304 294.119 390.767 294.009 390.296 293.787C389.827 293.565 389.455 293.26 389.179 292.871C388.904 292.482 388.76 292.036 388.749 291.533H390.539C390.559 291.871 390.701 292.145 390.965 292.355C391.229 292.565 391.543 292.67 391.907 292.67C392.196 292.67 392.452 292.607 392.674 292.479C392.898 292.348 393.073 292.168 393.198 291.938C393.326 291.705 393.39 291.437 393.39 291.136C393.39 290.83 393.324 290.56 393.194 290.327C393.066 290.094 392.888 289.912 392.661 289.781C392.434 289.651 392.174 289.584 391.881 289.581C391.625 289.581 391.377 289.634 391.135 289.739C390.897 289.844 390.711 289.987 390.577 290.169L388.936 289.875L389.35 285.273H394.685V286.781H390.871L390.645 288.967H390.696C390.85 288.751 391.081 288.572 391.391 288.43C391.701 288.288 392.047 288.217 392.431 288.217C392.956 288.217 393.425 288.341 393.837 288.588C394.249 288.835 394.574 289.175 394.813 289.607C395.051 290.036 395.169 290.53 395.167 291.089C395.169 291.678 395.033 292.2 394.757 292.658C394.485 293.112 394.103 293.47 393.611 293.732C393.123 293.99 392.554 294.119 391.907 294.119ZM399.803 294.119C399.354 294.116 398.921 294.041 398.503 293.893C398.088 293.746 397.716 293.506 397.387 293.173C397.057 292.841 396.796 292.401 396.603 291.852C396.412 291.304 396.317 290.631 396.317 289.832C396.32 289.099 396.404 288.445 396.569 287.868C396.736 287.288 396.975 286.797 397.284 286.393C397.597 285.99 397.971 285.683 398.405 285.473C398.84 285.26 399.327 285.153 399.867 285.153C400.449 285.153 400.963 285.267 401.409 285.494C401.855 285.719 402.213 286.024 402.483 286.411C402.756 286.797 402.921 287.23 402.978 287.71H401.158C401.087 287.406 400.938 287.168 400.711 286.994C400.483 286.821 400.202 286.734 399.867 286.734C399.299 286.734 398.867 286.982 398.571 287.476C398.279 287.97 398.13 288.642 398.124 289.491H398.184C398.314 289.233 398.49 289.013 398.712 288.831C398.936 288.646 399.191 288.506 399.475 288.409C399.762 288.31 400.064 288.26 400.382 288.26C400.9 288.26 401.36 288.382 401.763 288.626C402.167 288.868 402.485 289.2 402.718 289.624C402.951 290.047 403.067 290.531 403.067 291.077C403.067 291.668 402.929 292.193 402.654 292.653C402.381 293.114 401.999 293.474 401.507 293.736C401.019 293.994 400.451 294.122 399.803 294.119ZM399.794 292.67C400.078 292.67 400.333 292.602 400.557 292.466C400.782 292.33 400.958 292.145 401.086 291.912C401.213 291.679 401.277 291.418 401.277 291.128C401.277 290.838 401.213 290.578 401.086 290.348C400.961 290.118 400.787 289.935 400.566 289.798C400.344 289.662 400.091 289.594 399.807 289.594C399.594 289.594 399.397 289.634 399.215 289.713C399.036 289.793 398.878 289.903 398.742 290.045C398.608 290.187 398.503 290.352 398.426 290.54C398.35 290.724 398.311 290.922 398.311 291.132C398.311 291.413 398.375 291.67 398.503 291.903C398.634 292.136 398.81 292.322 399.032 292.462C399.256 292.601 399.51 292.67 399.794 292.67ZM407.452 289.636C407.452 290.696 407.31 291.67 407.026 292.56C406.745 293.449 406.313 294.273 405.73 295.031H403.996C404.218 294.75 404.424 294.406 404.614 294C404.804 293.594 404.971 293.151 405.113 292.67C405.255 292.187 405.365 291.687 405.445 291.17C405.525 290.653 405.564 290.142 405.564 289.636C405.564 288.963 405.495 288.284 405.355 287.599C405.219 286.912 405.032 286.276 404.793 285.69C404.557 285.102 404.292 284.621 403.996 284.246H405.73C406.313 285.004 406.745 285.828 407.026 286.717C407.31 287.607 407.452 288.58 407.452 289.636Z" fill="#101010"/>
</svg>
