<svg width="167" height="59" viewBox="0 0 167 59" fill="none" xmlns="http://www.w3.org/2000/svg">
<rect width="167" height="59" rx="12" fill="#C1272D"/>
<path d="M44.8764 27.1648C44.812 26.9261 44.7173 26.7159 44.5923 26.5341C44.4673 26.3485 44.3139 26.1913 44.1321 26.0625C43.9503 25.9337 43.742 25.8371 43.5071 25.7727C43.2723 25.7045 43.0147 25.6705 42.7344 25.6705C42.17 25.6705 41.6813 25.8068 41.2685 26.0795C40.8594 26.3523 40.5431 26.75 40.3196 27.2727C40.0961 27.7917 39.9844 28.4223 39.9844 29.1648C39.9844 29.911 40.0923 30.5473 40.3082 31.0739C40.5241 31.6004 40.8366 32.0019 41.2457 32.2784C41.6548 32.5549 42.151 32.6932 42.7344 32.6932C43.2495 32.6932 43.6851 32.6098 44.0412 32.4432C44.401 32.2727 44.6738 32.0322 44.8594 31.7216C45.045 31.411 45.1378 31.0455 45.1378 30.625L45.6605 30.6875H42.831V28.6364H47.848V30.1761C47.848 31.2178 47.6264 32.1098 47.1832 32.8523C46.7438 33.5947 46.1378 34.1648 45.3651 34.5625C44.5961 34.9602 43.7116 35.1591 42.7116 35.1591C41.6018 35.1591 40.6264 34.9186 39.7855 34.4375C38.9446 33.9564 38.2893 33.2708 37.8196 32.3807C37.3499 31.4867 37.1151 30.4261 37.1151 29.1989C37.1151 28.2443 37.2571 27.3977 37.5412 26.6591C37.8253 25.9167 38.2211 25.2879 38.7287 24.7727C39.2401 24.2576 39.831 23.8674 40.5014 23.6023C41.1757 23.3371 41.901 23.2045 42.6776 23.2045C43.3518 23.2045 43.9787 23.3011 44.5582 23.4943C45.1416 23.6875 45.6567 23.9602 46.1037 24.3125C46.5545 24.6648 46.92 25.0833 47.2003 25.5682C47.4806 26.053 47.6548 26.5852 47.723 27.1648H44.8764ZM53.5852 35.1648C52.6723 35.1648 51.8845 34.9848 51.2216 34.625C50.5625 34.2614 50.0549 33.7443 49.6989 33.0739C49.3466 32.3996 49.1705 31.5985 49.1705 30.6705C49.1705 29.7689 49.3485 28.9811 49.7045 28.3068C50.0606 27.6288 50.5625 27.1023 51.2102 26.7273C51.858 26.3485 52.6212 26.1591 53.5 26.1591C54.1212 26.1591 54.6894 26.2557 55.2045 26.4489C55.7197 26.642 56.1648 26.928 56.5398 27.3068C56.9148 27.6856 57.2064 28.1534 57.4148 28.7102C57.6231 29.2633 57.7273 29.8977 57.7273 30.6136V31.3068H50.142V29.6932H55.142C55.1383 29.3977 55.0682 29.1345 54.9318 28.9034C54.7955 28.6723 54.608 28.4924 54.3693 28.3636C54.1345 28.2311 53.8636 28.1648 53.5568 28.1648C53.2462 28.1648 52.9678 28.2348 52.7216 28.375C52.4754 28.5114 52.2803 28.6989 52.1364 28.9375C51.9924 29.1723 51.9167 29.4394 51.9091 29.7386V31.3807C51.9091 31.7367 51.9792 32.0492 52.1193 32.3182C52.2595 32.5833 52.4583 32.7898 52.7159 32.9375C52.9735 33.0852 53.2803 33.1591 53.6364 33.1591C53.8826 33.1591 54.1061 33.125 54.3068 33.0568C54.5076 32.9886 54.6799 32.8883 54.8239 32.7557C54.9678 32.6231 55.0758 32.4602 55.1477 32.267L57.6989 32.3409C57.5928 32.9129 57.3598 33.411 57 33.8352C56.6439 34.2557 56.1761 34.5833 55.5966 34.8182C55.017 35.0492 54.3466 35.1648 53.5852 35.1648ZM64.0724 26.2727V28.3182H58.5668V26.2727H64.0724ZM59.7202 24.1818H62.4986V32.2557C62.4986 32.4261 62.5251 32.5644 62.5781 32.6705C62.6349 32.7727 62.7164 32.8466 62.8224 32.892C62.9285 32.9337 63.0554 32.9545 63.2031 32.9545C63.3092 32.9545 63.4209 32.9451 63.5384 32.9261C63.6596 32.9034 63.7505 32.8845 63.8111 32.8693L64.2315 34.875C64.099 34.9129 63.9115 34.9602 63.669 35.017C63.4304 35.0739 63.1444 35.1098 62.8111 35.125C62.1596 35.1553 61.6009 35.0795 61.1349 34.8977C60.6728 34.7121 60.3187 34.4242 60.0724 34.0341C59.83 33.6439 59.7126 33.1534 59.7202 32.5625V24.1818ZM73.8537 26.2727V28.3182H68.348V26.2727H73.8537ZM69.5014 24.1818H72.2798V32.2557C72.2798 32.4261 72.3063 32.5644 72.3594 32.6705C72.4162 32.7727 72.4976 32.8466 72.6037 32.892C72.7098 32.9337 72.8366 32.9545 72.9844 32.9545C73.0904 32.9545 73.2022 32.9451 73.3196 32.9261C73.4408 32.9034 73.5317 32.8845 73.5923 32.8693L74.0128 34.875C73.8802 34.9129 73.6927 34.9602 73.4503 35.017C73.2116 35.0739 72.9257 35.1098 72.5923 35.125C71.9408 35.1553 71.3821 35.0795 70.9162 34.8977C70.4541 34.7121 70.0999 34.4242 69.8537 34.0341C69.6113 33.6439 69.4938 33.1534 69.5014 32.5625V24.1818ZM78.2372 30.0227V35H75.4588V23.3636H78.1463V27.875H78.2429C78.4399 27.3371 78.7618 26.9167 79.2088 26.6136C79.6596 26.3106 80.2107 26.1591 80.8622 26.1591C81.4759 26.1591 82.0099 26.2955 82.4645 26.5682C82.919 26.8371 83.2713 27.2178 83.5213 27.7102C83.7751 28.2027 83.9001 28.7784 83.8963 29.4375V35H81.1179V29.983C81.1217 29.4981 81.0005 29.1193 80.7543 28.8466C80.508 28.5739 80.1615 28.4375 79.7145 28.4375C79.4228 28.4375 79.1652 28.5019 78.9418 28.6307C78.7221 28.7557 78.5497 28.9356 78.4247 29.1705C78.3035 29.4053 78.241 29.6894 78.2372 30.0227ZM89.7102 35.1648C88.7973 35.1648 88.0095 34.9848 87.3466 34.625C86.6875 34.2614 86.1799 33.7443 85.8239 33.0739C85.4716 32.3996 85.2955 31.5985 85.2955 30.6705C85.2955 29.7689 85.4735 28.9811 85.8295 28.3068C86.1856 27.6288 86.6875 27.1023 87.3352 26.7273C87.983 26.3485 88.7462 26.1591 89.625 26.1591C90.2462 26.1591 90.8144 26.2557 91.3295 26.4489C91.8447 26.642 92.2898 26.928 92.6648 27.3068C93.0398 27.6856 93.3314 28.1534 93.5398 28.7102C93.7481 29.2633 93.8523 29.8977 93.8523 30.6136V31.3068H86.267V29.6932H91.267C91.2633 29.3977 91.1932 29.1345 91.0568 28.9034C90.9205 28.6723 90.733 28.4924 90.4943 28.3636C90.2595 28.2311 89.9886 28.1648 89.6818 28.1648C89.3712 28.1648 89.0928 28.2348 88.8466 28.375C88.6004 28.5114 88.4053 28.6989 88.2614 28.9375C88.1174 29.1723 88.0417 29.4394 88.0341 29.7386V31.3807C88.0341 31.7367 88.1042 32.0492 88.2443 32.3182C88.3845 32.5833 88.5833 32.7898 88.8409 32.9375C89.0985 33.0852 89.4053 33.1591 89.7614 33.1591C90.0076 33.1591 90.2311 33.125 90.4318 33.0568C90.6326 32.9886 90.8049 32.8883 90.9489 32.7557C91.0928 32.6231 91.2008 32.4602 91.2727 32.267L93.8239 32.3409C93.7178 32.9129 93.4848 33.411 93.125 33.8352C92.7689 34.2557 92.3011 34.5833 91.7216 34.8182C91.142 35.0492 90.4716 35.1648 89.7102 35.1648ZM101.226 35H98.2031L102.129 23.3636H105.874L109.8 35H106.777L104.044 26.2955H103.953L101.226 35ZM100.822 30.4205H107.141V32.5568H100.822V30.4205ZM111.053 38.2727V26.2727H113.803V27.767H113.888C114.001 27.5019 114.162 27.2462 114.371 27C114.583 26.7538 114.852 26.553 115.178 26.3977C115.507 26.2386 115.901 26.1591 116.359 26.1591C116.965 26.1591 117.532 26.3182 118.058 26.6364C118.589 26.9545 119.017 27.4451 119.342 28.108C119.668 28.7708 119.831 29.6155 119.831 30.642C119.831 31.6307 119.674 32.4583 119.359 33.125C119.049 33.7917 118.628 34.2917 118.098 34.625C117.571 34.9583 116.986 35.125 116.342 35.125C115.903 35.125 115.522 35.053 115.2 34.9091C114.878 34.7652 114.607 34.5758 114.388 34.3409C114.172 34.1061 114.005 33.8542 113.888 33.5852H113.831V38.2727H111.053ZM113.774 30.6364C113.774 31.1061 113.837 31.5152 113.962 31.8636C114.09 32.2121 114.274 32.483 114.513 32.6761C114.755 32.8655 115.045 32.9602 115.382 32.9602C115.723 32.9602 116.013 32.8655 116.251 32.6761C116.49 32.483 116.67 32.2121 116.791 31.8636C116.916 31.5152 116.979 31.1061 116.979 30.6364C116.979 30.1667 116.916 29.7595 116.791 29.4148C116.67 29.0701 116.49 28.803 116.251 28.6136C116.017 28.4242 115.727 28.3295 115.382 28.3295C115.041 28.3295 114.751 28.4223 114.513 28.608C114.274 28.7936 114.09 29.0587 113.962 29.4034C113.837 29.7481 113.774 30.1591 113.774 30.6364ZM121.287 38.2727V26.2727H124.037V27.767H124.122C124.236 27.5019 124.397 27.2462 124.605 27C124.817 26.7538 125.086 26.553 125.412 26.3977C125.741 26.2386 126.135 26.1591 126.594 26.1591C127.2 26.1591 127.766 26.3182 128.293 26.6364C128.823 26.9545 129.251 27.4451 129.577 28.108C129.902 28.7708 130.065 29.6155 130.065 30.642C130.065 31.6307 129.908 32.4583 129.594 33.125C129.283 33.7917 128.863 34.2917 128.332 34.625C127.806 34.9583 127.221 35.125 126.577 35.125C126.137 35.125 125.757 35.053 125.435 34.9091C125.113 34.7652 124.842 34.5758 124.622 34.3409C124.406 34.1061 124.24 33.8542 124.122 33.5852H124.065V38.2727H121.287ZM124.009 30.6364C124.009 31.1061 124.071 31.5152 124.196 31.8636C124.325 32.2121 124.509 32.483 124.747 32.6761C124.99 32.8655 125.279 32.9602 125.616 32.9602C125.957 32.9602 126.247 32.8655 126.486 32.6761C126.724 32.483 126.904 32.2121 127.026 31.8636C127.151 31.5152 127.213 31.1061 127.213 30.6364C127.213 30.1667 127.151 29.7595 127.026 29.4148C126.904 29.0701 126.724 28.803 126.486 28.6136C126.251 28.4242 125.961 28.3295 125.616 28.3295C125.276 28.3295 124.986 28.4223 124.747 28.608C124.509 28.7936 124.325 29.0587 124.196 29.4034C124.071 29.7481 124.009 30.1591 124.009 30.6364Z" fill="white"/>
</svg>
