<svg width="157" height="47" viewBox="0 0 157 47" fill="none" xmlns="http://www.w3.org/2000/svg">
<rect width="156.186" height="46.2774" rx="5" fill="black"/>
<path d="M150.401 0C153.596 0 156.187 2.59037 156.187 5.78516V40.4932C156.186 43.6877 153.596 46.2773 150.401 46.2773H5.78516C2.59053 46.2773 0.000251245 43.6877 0 40.4932V5.78516C0 2.59037 2.59037 0 5.78516 0H150.401ZM5.78418 0.925781C3.10078 0.926037 0.925781 3.10169 0.925781 5.78516V40.4932C0.926028 43.1764 3.10093 45.3513 5.78418 45.3516H150.401C153.085 45.3516 155.26 43.1766 155.261 40.4932V5.78516C155.261 3.10154 153.085 0.925781 150.401 0.925781H5.78418Z" fill="#A6A6A6"/>
<path d="M89.3852 25.1055C90.3743 25.1043 91.3166 25.5255 91.976 26.2627H92.0571V25.4521H94.0473V34.2109C94.0471 37.8434 91.9529 39.3359 89.4194 39.3359C87.5096 39.3473 85.7842 38.198 85.058 36.4316L86.9438 35.6455C87.3381 36.6761 88.3162 37.3657 89.4194 37.3916C91.039 37.3916 92.0452 36.3856 92.0453 34.5V33.7939H91.976C91.3259 34.5438 90.3774 34.9677 89.3852 34.9512C86.7592 34.8238 84.6949 32.6574 84.6948 30.0283C84.6948 27.3992 86.7591 25.2328 89.3852 25.1055ZM140.614 31.7227H140.683L143.159 25.4521H145.566L139.642 39.0928H137.386L139.584 34.2217L135.732 25.4521H138.045L140.614 31.7227ZM68.06 25.1631C69.3705 25.1404 70.6348 25.6494 71.5639 26.5742C72.4951 27.5011 73.0097 28.7664 72.9907 30.0801C72.9907 32.7941 70.7916 34.9949 68.0776 34.9971C65.3636 34.999 63.1609 32.8019 63.1567 30.0879C63.1524 27.3747 65.3471 25.1708 68.06 25.1631ZM78.8334 25.1631C80.1472 25.1379 81.4148 25.6473 82.3461 26.5742C83.2774 27.5011 83.7929 28.7663 83.7739 30.0801C83.7738 32.7925 81.5771 34.9926 78.8647 34.9971C76.1522 35.0013 73.9485 32.8082 73.9399 30.0957C73.9314 27.3832 76.1209 25.1759 78.8334 25.1631ZM103.442 25.1631C105.36 25.2339 107.035 26.4816 107.653 28.2988L107.896 28.8193L101.313 31.5381C101.726 32.4776 102.67 33.0692 103.696 33.0303C104.686 33.0328 105.604 32.5142 106.114 31.665L107.791 32.8223C106.878 34.189 105.34 35.0059 103.696 34.9971C102.389 35.0162 101.131 34.5033 100.21 33.5762C99.2896 32.6488 98.7855 31.3866 98.8139 30.0801C98.734 28.8035 99.1863 27.5506 100.063 26.6191C100.94 25.6878 102.163 25.1606 103.442 25.1631ZM55.2319 19.668C57.1995 19.6509 59.0905 20.431 60.4731 21.8311L59.0034 23.3008C57.9896 22.3221 56.629 21.7856 55.2202 21.8086C52.1533 21.8088 49.6675 24.2945 49.6674 27.3613C49.6674 30.4282 52.1533 32.9149 55.2202 32.915C56.6622 32.9725 58.0616 32.4175 59.0727 31.3877C59.7434 30.6679 60.1515 29.7424 60.2299 28.7617H55.2319V26.6787L62.2543 26.6211C62.335 27.0521 62.3743 27.4902 62.3705 27.9287C62.4249 29.7284 61.7778 31.4789 60.5659 32.8105C59.1807 34.261 57.2354 35.0417 55.2319 34.9512C52.431 35.0601 49.7946 33.6279 48.3618 31.2188C46.9289 28.8097 46.929 25.8095 48.3618 23.4004C49.7946 20.9913 52.431 19.559 55.2319 19.668ZM131.127 25.1055L131.185 25.1396C133.649 25.1397 135.57 26.6099 135.57 29.1436V34.708H133.487V33.5508H133.417C132.815 34.4864 131.751 35.0191 130.641 34.9395C129.741 35.006 128.852 34.7054 128.176 34.1064C127.501 33.5072 127.095 32.6599 127.054 31.7578C127.054 29.6639 129.148 28.507 131.219 28.5068C132.005 28.5035 132.78 28.6947 133.475 29.0625V28.9121C133.42 28.3563 133.144 27.8454 132.709 27.4951C132.274 27.1449 131.716 26.984 131.162 27.0488C130.353 26.9828 129.582 27.4003 129.195 28.1133L127.274 27.3154C128.004 25.8775 129.518 25.0093 131.127 25.1055ZM97.7612 34.708H95.5971V20.2461H97.7612V34.708ZM117.799 20.2461C119.48 20.1254 121.087 20.954 121.964 22.3926C122.841 23.8312 122.841 25.6395 121.964 27.0781C121.087 28.5167 119.48 29.3443 117.799 29.2236H114.78V34.708H112.616V20.2461H117.799ZM125.874 20.2461V34.708H123.711V20.2461H125.874ZM68.9282 27.3076C67.7856 26.8616 66.4863 27.1598 65.6528 28.0596C64.8193 28.9593 64.6209 30.2777 65.1528 31.3828C65.6848 32.488 66.8397 33.1558 68.0629 33.0654H68.0512C68.8185 33.0476 69.546 32.7201 70.0688 32.1582C70.5916 31.5962 70.8652 30.8467 70.8276 30.0801C70.8242 28.8535 70.0707 27.7537 68.9282 27.3076ZM79.7143 27.3086C78.5732 26.8615 77.2746 27.1573 76.4399 28.0547C75.6052 28.952 75.4038 30.2682 75.9321 31.374C76.4604 32.4799 77.6109 33.1509 78.8334 33.0654C79.6008 33.0476 80.3282 32.7201 80.851 32.1582C81.3738 31.5962 81.6475 30.8467 81.6098 30.0801C81.6068 28.8546 80.8553 27.7557 79.7143 27.3086ZM89.5698 33.0654H89.5815C89.5799 33.0653 89.5782 33.0646 89.5766 33.0645C89.5743 33.0645 89.572 33.0653 89.5698 33.0654ZM131.486 30.2656C130.398 30.2656 129.172 30.647 129.171 31.8037C129.171 32.6714 130.155 33.0302 130.861 33.0303L130.918 33.0654C132.222 33.0337 133.303 32.0461 133.453 30.751C132.852 30.4159 132.173 30.2487 131.486 30.2656ZM89.5815 27.0957C88.0346 27.232 86.8481 28.5272 86.8481 30.0801C86.8481 31.6314 88.032 32.9258 89.5766 33.0645C90.326 33.0338 91.031 32.6989 91.5278 32.1367C92.0258 31.5729 92.2712 30.8297 92.2075 30.0801C92.2645 29.3338 92.0182 28.5961 91.5239 28.0342C91.0294 27.4722 90.329 27.1341 89.5815 27.0957ZM103.511 27.0723C102.787 27.1049 102.107 27.427 101.623 27.9668C101.14 28.5066 100.895 29.2185 100.943 29.9414L105.339 28.1133C104.993 27.4315 104.274 27.0221 103.511 27.0723ZM114.768 27.1875H117.788L117.833 27.2227C119.204 27.2227 120.316 26.1117 120.316 24.7412C120.316 23.3706 119.204 22.2598 117.833 22.2598H114.768V27.1875Z" fill="white"/>
<path d="M51.4492 7.93555C51.9381 7.93396 52.4225 8.03223 52.872 8.22461C53.2907 8.39347 53.6637 8.65935 53.9599 9L53.3466 9.61328C52.8785 9.05649 52.1755 8.75239 51.4492 8.79199C50.719 8.78841 50.0183 9.08253 49.5097 9.60645C49.0012 10.1303 48.7277 10.8387 48.7529 11.5684C48.7374 12.6711 49.3871 13.6755 50.3994 14.1133C51.4115 14.551 52.5878 14.3367 53.3808 13.5703C53.7368 13.1845 53.9428 12.6829 53.9599 12.1582H51.4492V11.3252H54.8154C54.8462 11.497 54.8623 11.6721 54.8622 11.8467C54.9018 12.7041 54.5878 13.5403 53.9941 14.1602C53.3306 14.8494 52.4052 15.2234 51.4492 15.1895C49.9826 15.178 48.6656 14.2888 48.1074 12.9326C47.5492 11.5763 47.8588 10.017 48.8925 8.97656C49.5641 8.29117 50.4898 7.91417 51.4492 7.93555ZM82.6171 7.92969C83.5727 7.9298 84.4888 8.31112 85.162 8.98926C86.5327 10.4317 86.5327 12.6953 85.162 14.1377C83.754 15.5378 81.4792 15.5378 80.0712 14.1377C78.7065 12.693 78.7064 10.434 80.0712 8.98926C80.7446 8.311 81.6614 7.92969 82.6171 7.92969ZM60.1601 8.95508H57.037V11.1533H59.8828V11.9863H57.037V14.1836H60.1601V15.04H56.1113V8.09863H60.1601V8.95508ZM65.9453 8.95508H63.955V15.04H63.0644V8.95508H61.121V8.09863H65.9453V8.95508ZM70.2372 15.04H69.3466V8.09863H70.2372V15.04ZM76.1259 8.95508H74.1943V15.04H73.3036V8.95508H71.3593V8.09863H76.1259V8.95508ZM91.9072 13.501V8.09863H92.7978V15.04H91.872L88.3437 9.38281V15.04H87.4413V8.09863H88.5283L91.9072 13.501ZM84.5029 9.5791C83.4601 8.54068 81.7732 8.54068 80.7304 9.5791C79.7064 10.708 79.7064 12.4306 80.7304 13.5596C81.7732 14.598 83.4601 14.598 84.5029 13.5596C85.527 12.4306 85.527 10.7081 84.5029 9.5791Z" fill="white"/>
<path d="M51.4492 7.93555L51.4469 8.03555L51.4495 8.03555L51.4492 7.93555ZM52.872 8.22461L52.8327 8.31657L52.8346 8.31735L52.872 8.22461ZM53.9599 9L54.0306 9.07071L54.0966 9.00476L54.0354 8.93439L53.9599 9ZM53.3466 9.61328L53.2701 9.67763L53.3402 9.76109L53.4173 9.68399L53.3466 9.61328ZM51.4492 8.79199L51.4487 8.89217L51.4546 8.89184L51.4492 8.79199ZM49.5097 9.60645L49.438 9.53679L49.4379 9.53679L49.5097 9.60645ZM48.7529 11.5684L48.853 11.5698L48.8528 11.5649L48.7529 11.5684ZM50.3994 14.1133L50.3597 14.2051L50.3597 14.2051L50.3994 14.1133ZM53.3808 13.5703L53.4504 13.6423L53.4543 13.6381L53.3808 13.5703ZM53.9599 12.1582L54.0598 12.1615L54.0632 12.0582H53.9599V12.1582ZM51.4492 12.1582H51.3492V12.2582H51.4492V12.1582ZM51.4492 11.3252V11.2252H51.3492V11.3252H51.4492ZM54.8154 11.3252L54.9138 11.3075L54.899 11.2252H54.8154V11.3252ZM54.8622 11.8467L54.7621 11.8466L54.7624 11.8513L54.8622 11.8467ZM53.9941 14.1602L54.0661 14.2295L54.0663 14.2293L53.9941 14.1602ZM51.4492 15.1895L51.4527 15.0895L51.4499 15.0895L51.4492 15.1895ZM48.1074 12.9326L48.0149 12.9707L48.0149 12.9707L48.1074 12.9326ZM48.8925 8.97656L48.9635 9.04704L48.9639 9.04655L48.8925 8.97656ZM82.6171 7.92969L82.6171 7.82969H82.6171V7.92969ZM85.162 8.98926L85.2346 8.92036L85.233 8.9188L85.162 8.98926ZM85.162 14.1377L85.2326 14.2086L85.2345 14.2066L85.162 14.1377ZM80.0712 14.1377L79.9985 14.2064L80.0007 14.2086L80.0712 14.1377ZM80.0712 8.98926L80.0002 8.91878L79.9985 8.92059L80.0712 8.98926ZM60.1601 8.95508V9.05508H60.2601V8.95508H60.1601ZM57.037 8.95508V8.85508H56.937V8.95508H57.037ZM57.037 11.1533H56.937V11.2533H57.037V11.1533ZM59.8828 11.1533H59.9828V11.0533H59.8828V11.1533ZM59.8828 11.9863V12.0863H59.9828V11.9863H59.8828ZM57.037 11.9863V11.8863H56.937V11.9863H57.037ZM57.037 14.1836H56.937V14.2836H57.037V14.1836ZM60.1601 14.1836H60.2601V14.0836H60.1601V14.1836ZM60.1601 15.04V15.14H60.2601V15.04H60.1601ZM56.1113 15.04H56.0113V15.14H56.1113V15.04ZM56.1113 8.09863V7.99863H56.0113V8.09863H56.1113ZM60.1601 8.09863H60.2601V7.99863H60.1601V8.09863ZM65.9453 8.95508V9.05508H66.0453V8.95508H65.9453ZM63.955 8.95508V8.85508H63.855V8.95508H63.955ZM63.955 15.04V15.14H64.055V15.04H63.955ZM63.0644 15.04H62.9644V15.14H63.0644V15.04ZM63.0644 8.95508H63.1644V8.85508H63.0644V8.95508ZM61.121 8.95508H61.021V9.05508H61.121V8.95508ZM61.121 8.09863V7.99863H61.021V8.09863H61.121ZM65.9453 8.09863H66.0453V7.99863H65.9453V8.09863ZM70.2372 15.04V15.14H70.3372V15.04H70.2372ZM69.3466 15.04H69.2466V15.14H69.3466V15.04ZM69.3466 8.09863V7.99863H69.2466V8.09863H69.3466ZM70.2372 8.09863H70.3372V7.99863H70.2372V8.09863ZM76.1259 8.95508V9.05508H76.2259V8.95508H76.1259ZM74.1943 8.95508V8.85508H74.0943V8.95508H74.1943ZM74.1943 15.04V15.14H74.2943V15.04H74.1943ZM73.3036 15.04H73.2036V15.14H73.3036V15.04ZM73.3036 8.95508H73.4037V8.85508H73.3036V8.95508ZM71.3593 8.95508H71.2593V9.05508H71.3593V8.95508ZM71.3593 8.09863V7.99863H71.2593V8.09863H71.3593ZM76.1259 8.09863H76.2259V7.99863H76.1259V8.09863ZM91.9072 13.501L91.8224 13.554L92.0072 13.8494V13.501H91.9072ZM91.9072 8.09863V7.99863H91.8072V8.09863H91.9072ZM92.7978 8.09863H92.8978V7.99863H92.7978V8.09863ZM92.7978 15.04V15.14H92.8978V15.04H92.7978ZM91.872 15.04L91.7872 15.093L91.8165 15.14H91.872V15.04ZM88.3437 9.38281L88.4285 9.32989L88.2437 9.03351V9.38281H88.3437ZM88.3437 15.04V15.14H88.4437V15.04H88.3437ZM87.4413 15.04H87.3413V15.14H87.4413V15.04ZM87.4413 8.09863V7.99863H87.3413V8.09863H87.4413ZM88.5283 8.09863L88.613 8.04561L88.5837 7.99863H88.5283V8.09863ZM84.5029 9.5791L84.577 9.51183L84.5734 9.50824L84.5029 9.5791ZM80.7304 9.5791L80.6598 9.50815L80.6563 9.51192L80.7304 9.5791ZM80.7304 13.5596L80.6562 13.6268L80.6598 13.6304L80.7304 13.5596ZM84.5029 13.5596L84.5735 13.6305L84.5769 13.6268L84.5029 13.5596ZM51.4492 7.93555L51.4495 8.03555C51.9249 8.034 52.3957 8.12954 52.8327 8.31654L52.872 8.22461L52.9114 8.13267C52.4492 7.93492 51.9514 7.83391 51.4488 7.83555L51.4492 7.93555ZM52.872 8.22461L52.8346 8.31735C53.2386 8.4803 53.5986 8.73689 53.8844 9.06561L53.9599 9L54.0354 8.93439C53.7288 8.58181 53.3427 8.30664 52.9094 8.13187L52.872 8.22461ZM53.9599 9L53.8892 8.92929L53.2759 9.54257L53.3466 9.61328L53.4173 9.68399L54.0306 9.07071L53.9599 9ZM53.3466 9.61328L53.4232 9.54893C52.9348 8.96806 52.2014 8.65083 51.4437 8.69214L51.4492 8.79199L51.4546 8.89184C52.1496 8.85395 52.8222 9.14493 53.2701 9.67763L53.3466 9.61328ZM51.4492 8.79199L51.4496 8.69199C50.6923 8.68828 49.9656 8.99334 49.438 9.53679L49.5097 9.60645L49.5815 9.6761C50.0711 9.17171 50.7457 8.88854 51.4487 8.89199L51.4492 8.79199ZM49.5097 9.60645L49.4379 9.53679C48.9105 10.0801 48.6269 10.815 48.6529 11.5718L48.7529 11.5684L48.8528 11.5649C48.8286 10.8625 49.0919 10.1805 49.5815 9.6761L49.5097 9.60645ZM48.7529 11.5684L48.6529 11.567C48.6368 12.7101 49.3103 13.7512 50.3597 14.2051L50.3994 14.1133L50.439 14.0215C49.4639 13.5997 48.8379 12.6322 48.8529 11.5698L48.7529 11.5684ZM50.3994 14.1133L50.3597 14.2051C51.4089 14.6588 52.6283 14.4366 53.4503 13.6422L53.3808 13.5703L53.3113 13.4984C52.5474 14.2367 51.4141 14.4432 50.439 14.0215L50.3994 14.1133ZM53.3808 13.5703L53.4543 13.6381C53.8265 13.2347 54.0419 12.7102 54.0598 12.1615L53.9599 12.1582L53.86 12.1549C53.8436 12.6556 53.6471 13.1343 53.3073 13.5025L53.3808 13.5703ZM53.9599 12.1582V12.0582H51.4492V12.1582V12.2582H53.9599V12.1582ZM51.4492 12.1582H51.5492V11.3252H51.4492H51.3492V12.1582H51.4492ZM51.4492 11.3252V11.4252H54.8154V11.3252V11.2252H51.4492V11.3252ZM54.8154 11.3252L54.7169 11.3429C54.7468 11.509 54.7623 11.6782 54.7622 11.8466L54.8622 11.8467L54.9622 11.8467C54.9623 11.666 54.9457 11.485 54.9138 11.3075L54.8154 11.3252ZM54.8622 11.8467L54.7624 11.8513C54.8007 12.6813 54.4967 13.4909 53.9219 14.091L53.9941 14.1602L54.0663 14.2293C54.6789 13.5897 55.003 12.7268 54.9621 11.8421L54.8622 11.8467ZM53.9941 14.1602L53.922 14.0908C53.2783 14.7595 52.3804 15.1225 51.4527 15.0895L51.4492 15.1895L51.4456 15.2894C52.43 15.3244 53.3829 14.9392 54.0661 14.2295L53.9941 14.1602ZM51.4492 15.1895L51.4499 15.0895C50.0236 15.0783 48.7427 14.2135 48.1998 12.8946L48.1074 12.9326L48.0149 12.9707C48.5884 14.3641 49.9416 15.2777 51.4484 15.2895L51.4492 15.1895ZM48.1074 12.9326L48.1998 12.8946C47.657 11.5755 47.9581 10.059 48.9635 9.04704L48.8925 8.97656L48.8216 8.90608C47.7595 9.97508 47.4414 11.5772 48.0149 12.9707L48.1074 12.9326ZM48.8925 8.97656L48.9639 9.04655C49.6162 8.3809 50.5152 8.01476 51.4469 8.03552L51.4492 7.93555L51.4514 7.83557C50.4644 7.81357 49.512 8.20144 48.8211 8.90657L48.8925 8.97656ZM82.6171 7.92969L82.6171 8.02969C83.546 8.0298 84.4366 8.40049 85.0911 9.05971L85.162 8.98926L85.233 8.9188C84.541 8.22175 83.5993 7.8298 82.6171 7.82969L82.6171 7.92969ZM85.162 8.98926L85.0896 9.05814C86.4235 10.4619 86.4235 12.665 85.0896 14.0688L85.162 14.1377L85.2345 14.2066C86.6418 12.7256 86.6419 10.4014 85.2345 8.92037L85.162 8.98926ZM85.162 14.1377L85.0915 14.0668C83.7225 15.4282 81.5107 15.4282 80.1417 14.0668L80.0712 14.1377L80.0007 14.2086C81.4477 15.6475 83.7856 15.6475 85.2326 14.2086L85.162 14.1377ZM80.0712 14.1377L80.1439 14.069C78.8156 12.6628 78.8155 10.4641 80.1439 9.05793L80.0712 8.98926L79.9985 8.92059C78.5973 10.4038 78.5974 12.7231 79.9985 14.2064L80.0712 14.1377ZM80.0712 8.98926L80.1422 9.05971C80.7967 8.40039 81.688 8.02969 82.6171 8.02969V7.92969V7.82969C81.6348 7.82969 80.6924 8.22162 80.0003 8.91881L80.0712 8.98926ZM60.1601 8.95508V8.85508H57.037V8.95508V9.05508H60.1601V8.95508ZM57.037 8.95508H56.937V11.1533H57.037H57.137V8.95508H57.037ZM57.037 11.1533V11.2533H59.8828V11.1533V11.0533H57.037V11.1533ZM59.8828 11.1533H59.7828V11.9863H59.8828H59.9828V11.1533H59.8828ZM59.8828 11.9863V11.8863H57.037V11.9863V12.0863H59.8828V11.9863ZM57.037 11.9863H56.937V14.1836H57.037H57.137V11.9863H57.037ZM57.037 14.1836V14.2836H60.1601V14.1836V14.0836H57.037V14.1836ZM60.1601 14.1836H60.0601V15.04H60.1601H60.2601V14.1836H60.1601ZM60.1601 15.04V14.94H56.1113V15.04V15.14H60.1601V15.04ZM56.1113 15.04H56.2113V8.09863H56.1113H56.0113V15.04H56.1113ZM56.1113 8.09863V8.19863H60.1601V8.09863V7.99863H56.1113V8.09863ZM60.1601 8.09863H60.0601V8.95508H60.1601H60.2601V8.09863H60.1601ZM65.9453 8.95508V8.85508H63.955V8.95508V9.05508H65.9453V8.95508ZM63.955 8.95508H63.855V15.04H63.955H64.055V8.95508H63.955ZM63.955 15.04V14.94H63.0644V15.04V15.14H63.955V15.04ZM63.0644 15.04H63.1644V8.95508H63.0644H62.9644V15.04H63.0644ZM63.0644 8.95508V8.85508H61.121V8.95508V9.05508H63.0644V8.95508ZM61.121 8.95508H61.221V8.09863H61.121H61.021V8.95508H61.121ZM61.121 8.09863V8.19863H65.9453V8.09863V7.99863H61.121V8.09863ZM65.9453 8.09863H65.8453V8.95508H65.9453H66.0453V8.09863H65.9453ZM70.2372 15.04V14.94H69.3466V15.04V15.14H70.2372V15.04ZM69.3466 15.04H69.4466V8.09863H69.3466H69.2466V15.04H69.3466ZM69.3466 8.09863V8.19863H70.2372V8.09863V7.99863H69.3466V8.09863ZM70.2372 8.09863H70.1372V15.04H70.2372H70.3372V8.09863H70.2372ZM76.1259 8.95508V8.85508H74.1943V8.95508V9.05508H76.1259V8.95508ZM74.1943 8.95508H74.0943V15.04H74.1943H74.2943V8.95508H74.1943ZM74.1943 15.04V14.94H73.3036V15.04V15.14H74.1943V15.04ZM73.3036 15.04H73.4037V8.95508H73.3036H73.2036V15.04H73.3036ZM73.3036 8.95508V8.85508H71.3593V8.95508V9.05508H73.3036V8.95508ZM71.3593 8.95508H71.4593V8.09863H71.3593H71.2593V8.95508H71.3593ZM71.3593 8.09863V8.19863H76.1259V8.09863V7.99863H71.3593V8.09863ZM76.1259 8.09863H76.0259V8.95508H76.1259H76.2259V8.09863H76.1259ZM91.9072 13.501H92.0072V8.09863H91.9072H91.8072V13.501H91.9072ZM91.9072 8.09863V8.19863H92.7978V8.09863V7.99863H91.9072V8.09863ZM92.7978 8.09863H92.6978V15.04H92.7978H92.8978V8.09863H92.7978ZM92.7978 15.04V14.94H91.872V15.04V15.14H92.7978V15.04ZM91.872 15.04L91.9569 14.9871L88.4285 9.32989L88.3437 9.38281L88.2588 9.43573L91.7872 15.093L91.872 15.04ZM88.3437 9.38281H88.2437V15.04H88.3437H88.4437V9.38281H88.3437ZM88.3437 15.04V14.94H87.4413V15.04V15.14H88.3437V15.04ZM87.4413 15.04H87.5413V8.09863H87.4413H87.3413V15.04H87.4413ZM87.4413 8.09863V8.19863H88.5283V8.09863V7.99863H87.4413V8.09863ZM88.5283 8.09863L88.4435 8.15166L91.8224 13.554L91.9072 13.501L91.9919 13.4479L88.613 8.04561L88.5283 8.09863ZM84.5029 9.5791L84.5734 9.50824C83.4916 8.43096 81.7416 8.43096 80.6598 9.50824L80.7304 9.5791L80.801 9.64996C81.8047 8.65039 83.4286 8.65039 84.4323 9.64996L84.5029 9.5791ZM80.7304 9.5791L80.6563 9.51192C79.5977 10.679 79.5977 12.4597 80.6563 13.6268L80.7304 13.5596L80.8045 13.4924C79.815 12.4016 79.815 10.7371 80.8045 9.64629L80.7304 9.5791ZM80.7304 13.5596L80.6598 13.6304C81.7416 14.7077 83.4916 14.7077 84.5734 13.6304L84.5029 13.5596L84.4323 13.4887C83.4286 14.4883 81.8047 14.4883 80.801 13.4887L80.7304 13.5596ZM84.5029 13.5596L84.5769 13.6268C85.6356 12.4597 85.6356 10.679 84.5769 9.51191L84.5029 9.5791L84.4288 9.64629C85.4183 10.7371 85.4183 12.4015 84.4288 13.4924L84.5029 13.5596Z" fill="white"/>
<path d="M12.0784 8.72356C11.7013 9.17605 11.511 9.75531 11.5462 10.3433V35.9347C11.511 36.5226 11.7013 37.1019 12.0784 37.5544L12.1594 37.6353L26.4938 23.3125V22.977L12.1594 8.64258L12.0784 8.72356Z" fill="url(#paint0_linear_1478_1783)"/>
<path d="M31.2372 28.0904L26.4938 23.3122V22.9767L31.2372 18.187L31.3413 18.2449L37.0219 21.4727C38.6416 22.3867 38.6416 23.8907 37.0219 24.8162L31.3645 28.0325L31.2372 28.0904Z" fill="url(#paint1_linear_1478_1783)"/>
<path d="M31.3761 28.0209L26.4938 23.1387L12.0784 37.5541C12.7595 38.1528 13.7703 38.182 14.4848 37.6235L31.3876 28.0209" fill="url(#paint2_linear_1478_1783)"/>
<path d="M31.3761 18.2565L14.4732 8.65394C13.7588 8.09546 12.7479 8.12462 12.0668 8.72336L26.4938 23.1388L31.3761 18.2565Z" fill="url(#paint3_linear_1478_1783)"/>
<path opacity="0.2" d="M31.2372 27.917L14.4733 37.4617C13.7872 37.9746 12.8454 37.9746 12.1594 37.4617L12.0784 37.5427L12.1594 37.6237C12.8441 38.1404 13.7885 38.1404 14.4733 37.6237L31.3761 28.0211L31.2372 27.917Z" fill="black"/>
<path opacity="0.12" d="M11.545 36.0156C11.5678 36.5182 11.7533 37.0027 12.0782 37.3926L12.1592 37.4844L12.0782 37.5654C11.7161 37.1309 11.5282 36.5794 11.545 36.0156ZM11.546 35.9463C11.5446 35.9694 11.5457 35.9926 11.545 36.0156C11.5413 35.9349 11.5411 35.8538 11.546 35.7725V35.9463ZM38.1788 23.1387C38.1192 23.8611 37.6776 24.4965 37.0215 24.8047L31.3409 28.0205L31.2374 27.917L37.0215 24.6426C37.6193 24.3475 38.0469 23.7921 38.1788 23.1387Z" fill="black"/>
<path opacity="0.25" d="M14.4733 8.81492L37.0219 21.6338C37.6197 21.9288 38.047 22.4843 38.1788 23.1378C38.1192 22.4154 37.678 21.78 37.0219 21.4718L14.4733 8.65295C12.8535 7.73897 11.5346 8.50255 11.5346 10.3536V10.5272C11.5693 8.66452 12.8651 7.90094 14.4733 8.81492Z" fill="white"/>
<defs>
<linearGradient id="paint0_linear_1478_1783" x1="20.2154" y1="-8.74496" x2="-2.73754" y2="-2.64058" gradientUnits="userSpaceOnUse">
<stop stop-color="#00A0FF"/>
<stop offset="0.01" stop-color="#00A1FF"/>
<stop offset="0.26" stop-color="#00BEFF"/>
<stop offset="0.51" stop-color="#00D2FF"/>
<stop offset="0.76" stop-color="#00DFFF"/>
<stop offset="1" stop-color="#00E3FF"/>
</linearGradient>
<linearGradient id="paint1_linear_1478_1783" x1="39.1391" y1="11.3376" x2="11.1528" y2="11.3376" gradientUnits="userSpaceOnUse">
<stop stop-color="#FFE000"/>
<stop offset="0.41" stop-color="#FFBD00"/>
<stop offset="0.78" stop-color="#FFA500"/>
<stop offset="1" stop-color="#FF9C00"/>
</linearGradient>
<linearGradient id="paint2_linear_1478_1783" x1="11.6548" y1="15.6505" x2="-6.78258" y2="46.6639" gradientUnits="userSpaceOnUse">
<stop stop-color="#FF3A44"/>
<stop offset="1" stop-color="#C31162"/>
</linearGradient>
<linearGradient id="paint3_linear_1478_1783" x1="0.821438" y1="4.73888" x2="9.05104" y2="18.5879" gradientUnits="userSpaceOnUse">
<stop stop-color="#32A071"/>
<stop offset="0.07" stop-color="#2DA771"/>
<stop offset="0.48" stop-color="#15CF74"/>
<stop offset="0.8" stop-color="#06E775"/>
<stop offset="1" stop-color="#00F076"/>
</linearGradient>
</defs>
</svg>
