<svg width="197" height="59" viewBox="0 0 197 59" fill="none" xmlns="http://www.w3.org/2000/svg">
<rect width="197" height="59" rx="12" fill="white"/>
<path d="M41.9418 23.3636H43.3509V31.6818C43.3509 32.4242 43.2145 33.0549 42.9418 33.5739C42.669 34.0928 42.2846 34.4867 41.7884 34.7557C41.2921 35.0246 40.7069 35.1591 40.0327 35.1591C39.3963 35.1591 38.83 35.0436 38.3338 34.8125C37.8376 34.5777 37.4474 34.2443 37.1634 33.8125C36.8793 33.3807 36.7372 32.8674 36.7372 32.2727H38.1236C38.1236 32.6023 38.205 32.8902 38.3679 33.1364C38.5346 33.3788 38.7618 33.5682 39.0497 33.7045C39.3376 33.8409 39.6652 33.9091 40.0327 33.9091C40.438 33.9091 40.7827 33.8239 41.0668 33.6534C41.3509 33.483 41.5668 33.233 41.7145 32.9034C41.866 32.5701 41.9418 32.1629 41.9418 31.6818V23.3636ZM49.5384 35.1818C48.7505 35.1818 48.0592 34.9943 47.4645 34.6193C46.8736 34.2443 46.4115 33.7197 46.0781 33.0455C45.7486 32.3712 45.5838 31.5833 45.5838 30.6818C45.5838 29.7727 45.7486 28.9792 46.0781 28.3011C46.4115 27.6231 46.8736 27.0966 47.4645 26.7216C48.0592 26.3466 48.7505 26.1591 49.5384 26.1591C50.3262 26.1591 51.0156 26.3466 51.6065 26.7216C52.2012 27.0966 52.6634 27.6231 52.9929 28.3011C53.3262 28.9792 53.4929 29.7727 53.4929 30.6818C53.4929 31.5833 53.3262 32.3712 52.9929 33.0455C52.6634 33.7197 52.2012 34.2443 51.6065 34.6193C51.0156 34.9943 50.3262 35.1818 49.5384 35.1818ZM49.5384 33.9773C50.1368 33.9773 50.6293 33.8239 51.0156 33.517C51.402 33.2102 51.688 32.8068 51.8736 32.3068C52.0592 31.8068 52.152 31.2652 52.152 30.6818C52.152 30.0985 52.0592 29.5549 51.8736 29.0511C51.688 28.5473 51.402 28.1402 51.0156 27.8295C50.6293 27.5189 50.1368 27.3636 49.5384 27.3636C48.9399 27.3636 48.4474 27.5189 48.0611 27.8295C47.6747 28.1402 47.3887 28.5473 47.2031 29.0511C47.0175 29.5549 46.9247 30.0985 46.9247 30.6818C46.9247 31.2652 47.0175 31.8068 47.2031 32.3068C47.3887 32.8068 47.6747 33.2102 48.0611 33.517C48.4474 33.8239 48.9399 33.9773 49.5384 33.9773ZM55.5398 35V26.2727H56.8807V35H55.5398ZM56.2216 24.8182C55.9602 24.8182 55.7348 24.7292 55.5455 24.5511C55.3598 24.3731 55.267 24.1591 55.267 23.9091C55.267 23.6591 55.3598 23.4451 55.5455 23.267C55.7348 23.089 55.9602 23 56.2216 23C56.483 23 56.7064 23.089 56.892 23.267C57.0814 23.4451 57.1761 23.6591 57.1761 23.9091C57.1761 24.1591 57.0814 24.3731 56.892 24.5511C56.7064 24.7292 56.483 24.8182 56.2216 24.8182ZM60.6776 29.75V35H59.3366V26.2727H60.6321V27.6364H60.7457C60.9503 27.1932 61.2609 26.8371 61.6776 26.5682C62.0942 26.2955 62.6321 26.1591 63.2912 26.1591C63.8821 26.1591 64.3991 26.2803 64.8423 26.5227C65.2855 26.7614 65.6302 27.125 65.8764 27.6136C66.1226 28.0985 66.2457 28.7121 66.2457 29.4545V35H64.9048V29.5455C64.9048 28.8598 64.7268 28.3258 64.3707 27.9432C64.0147 27.5568 63.526 27.3636 62.9048 27.3636C62.4768 27.3636 62.0942 27.4564 61.7571 27.642C61.4238 27.8277 61.1605 28.0985 60.9673 28.4545C60.7741 28.8106 60.6776 29.2424 60.6776 29.75ZM75.4915 35L72.3097 23.3636H73.7415L76.1733 32.8409H76.2869L78.7642 23.3636H80.3551L82.8324 32.8409H82.946L85.3778 23.3636H86.8097L83.6278 35H82.1733L79.6051 25.7273H79.5142L76.946 35H75.4915ZM90.1392 35.2045C89.5862 35.2045 89.0843 35.1004 88.6335 34.892C88.1828 34.6799 87.8248 34.375 87.5597 33.9773C87.2945 33.5758 87.1619 33.0909 87.1619 32.5227C87.1619 32.0227 87.2604 31.6174 87.4574 31.3068C87.6544 30.9924 87.9176 30.7462 88.2472 30.5682C88.5767 30.3902 88.9403 30.2576 89.3381 30.1705C89.7396 30.0795 90.143 30.0076 90.5483 29.9545C91.0786 29.8864 91.5085 29.8352 91.8381 29.8011C92.1714 29.7633 92.4138 29.7008 92.5653 29.6136C92.7206 29.5265 92.7983 29.375 92.7983 29.1591V29.1136C92.7983 28.553 92.6449 28.1174 92.3381 27.8068C92.035 27.4962 91.5748 27.3409 90.9574 27.3409C90.3172 27.3409 89.8153 27.4811 89.4517 27.7614C89.0881 28.0417 88.8324 28.3409 88.6847 28.6591L87.4119 28.2045C87.6392 27.6742 87.9422 27.2614 88.321 26.9659C88.7036 26.6667 89.1203 26.4583 89.571 26.3409C90.0256 26.2197 90.4725 26.1591 90.9119 26.1591C91.1922 26.1591 91.5142 26.1932 91.8778 26.2614C92.2453 26.3258 92.5994 26.4602 92.9403 26.6648C93.285 26.8693 93.571 27.178 93.7983 27.5909C94.0256 28.0038 94.1392 28.5568 94.1392 29.25V35H92.7983V33.8182H92.7301C92.6392 34.0076 92.4877 34.2102 92.2756 34.4261C92.0634 34.642 91.7813 34.8258 91.429 34.9773C91.0767 35.1288 90.6468 35.2045 90.1392 35.2045ZM90.3438 34C90.8741 34 91.321 33.8958 91.6847 33.6875C92.0521 33.4792 92.3286 33.2102 92.5142 32.8807C92.7036 32.5511 92.7983 32.2045 92.7983 31.8409V30.6136C92.7415 30.6818 92.6165 30.7443 92.4233 30.8011C92.2339 30.8542 92.0142 30.9015 91.7642 30.9432C91.518 30.9811 91.2775 31.0152 91.0426 31.0455C90.8116 31.072 90.6241 31.0947 90.4801 31.1136C90.1316 31.1591 89.8059 31.233 89.5028 31.3352C89.2036 31.4337 88.9612 31.5833 88.7756 31.7841C88.5938 31.9811 88.5028 32.25 88.5028 32.5909C88.5028 33.0568 88.6752 33.4091 89.0199 33.6477C89.3684 33.8826 89.8097 34 90.3438 34ZM96.5866 35V26.2727H97.9276V35H96.5866ZM97.2685 24.8182C97.0071 24.8182 96.7817 24.7292 96.5923 24.5511C96.4067 24.3731 96.3139 24.1591 96.3139 23.9091C96.3139 23.6591 96.4067 23.4451 96.5923 23.267C96.7817 23.089 97.0071 23 97.2685 23C97.5298 23 97.7533 23.089 97.9389 23.267C98.1283 23.4451 98.223 23.6591 98.223 23.9091C98.223 24.1591 98.1283 24.3731 97.9389 24.5511C97.7533 24.7292 97.5298 24.8182 97.2685 24.8182ZM104.179 26.2727V27.4091H99.6562V26.2727H104.179ZM100.974 24.1818H102.315V32.5C102.315 32.8788 102.37 33.1629 102.48 33.3523C102.594 33.5379 102.738 33.6629 102.912 33.7273C103.09 33.7879 103.277 33.8182 103.474 33.8182C103.622 33.8182 103.743 33.8106 103.838 33.7955C103.933 33.7765 104.009 33.7614 104.065 33.75L104.338 34.9545C104.247 34.9886 104.12 35.0227 103.957 35.0568C103.795 35.0947 103.588 35.1136 103.338 35.1136C102.959 35.1136 102.588 35.0322 102.224 34.8693C101.865 34.7064 101.565 34.4583 101.327 34.125C101.092 33.7917 100.974 33.3712 100.974 32.8636V24.1818ZM107.724 23.3636V35H106.384V23.3636H107.724ZM110.18 35V26.2727H111.521V35H110.18ZM110.862 24.8182C110.601 24.8182 110.375 24.7292 110.186 24.5511C110 24.3731 109.908 24.1591 109.908 23.9091C109.908 23.6591 110 23.4451 110.186 23.267C110.375 23.089 110.601 23 110.862 23C111.124 23 111.347 23.089 111.533 23.267C111.722 23.4451 111.817 23.6591 111.817 23.9091C111.817 24.1591 111.722 24.3731 111.533 24.5511C111.347 24.7292 111.124 24.8182 110.862 24.8182ZM120.159 28.2273L118.955 28.5682C118.879 28.3674 118.767 28.1723 118.619 27.983C118.475 27.7898 118.278 27.6307 118.028 27.5057C117.778 27.3807 117.458 27.3182 117.068 27.3182C116.534 27.3182 116.089 27.4413 115.733 27.6875C115.381 27.9299 115.205 28.2386 115.205 28.6136C115.205 28.947 115.326 29.2102 115.568 29.4034C115.811 29.5966 116.189 29.7576 116.705 29.8864L118 30.2045C118.78 30.3939 119.362 30.6837 119.744 31.0739C120.127 31.4602 120.318 31.9583 120.318 32.5682C120.318 33.0682 120.174 33.5152 119.886 33.9091C119.602 34.303 119.205 34.6136 118.693 34.8409C118.182 35.0682 117.587 35.1818 116.909 35.1818C116.019 35.1818 115.282 34.9886 114.699 34.6023C114.116 34.2159 113.746 33.6515 113.591 32.9091L114.864 32.5909C114.985 33.0606 115.214 33.4129 115.551 33.6477C115.892 33.8826 116.337 34 116.886 34C117.511 34 118.008 33.8674 118.375 33.6023C118.746 33.3333 118.932 33.0114 118.932 32.6364C118.932 32.3333 118.826 32.0795 118.614 31.875C118.402 31.6667 118.076 31.5114 117.636 31.4091L116.182 31.0682C115.383 30.8788 114.795 30.5852 114.42 30.1875C114.049 29.786 113.864 29.2841 113.864 28.6818C113.864 28.1894 114.002 27.7538 114.278 27.375C114.559 26.9962 114.939 26.6989 115.42 26.483C115.905 26.267 116.455 26.1591 117.068 26.1591C117.932 26.1591 118.61 26.3485 119.102 26.7273C119.598 27.1061 119.951 27.6061 120.159 28.2273ZM126.132 26.2727V27.4091H121.609V26.2727H126.132ZM122.928 24.1818H124.268V32.5C124.268 32.8788 124.323 33.1629 124.433 33.3523C124.547 33.5379 124.691 33.6629 124.865 33.7273C125.043 33.7879 125.231 33.8182 125.428 33.8182C125.575 33.8182 125.696 33.8106 125.791 33.7955C125.886 33.7765 125.962 33.7614 126.018 33.75L126.291 34.9545C126.2 34.9886 126.073 35.0227 125.911 35.0568C125.748 35.0947 125.541 35.1136 125.291 35.1136C124.912 35.1136 124.541 35.0322 124.178 34.8693C123.818 34.7064 123.518 34.4583 123.28 34.125C123.045 33.7917 122.928 33.3712 122.928 32.8636V24.1818Z" fill="#111111"/>
<path d="M144 34.5L154 24.5M154 24.5V33.5M154 24.5H145" stroke="#111111" stroke-width="2" stroke-linecap="round" stroke-linejoin="round"/>
</svg>
