<svg width="300" height="241" viewBox="0 0 300 241" fill="none" xmlns="http://www.w3.org/2000/svg">
<rect x="0.5" y="0.865234" width="29" height="29" stroke="white" stroke-opacity="0.12"/>
<rect x="30.5" y="0.865234" width="29" height="29" stroke="white" stroke-opacity="0.12"/>
<rect x="60.5" y="0.865234" width="29" height="29" stroke="white" stroke-opacity="0.12"/>
<rect x="90.5" y="0.865234" width="29" height="29" stroke="white" stroke-opacity="0.12"/>
<rect x="120.5" y="0.865234" width="29" height="29" stroke="white" stroke-opacity="0.12"/>
<rect x="150.5" y="0.865234" width="29" height="29" stroke="white" stroke-opacity="0.12"/>
<rect x="180.5" y="0.865234" width="29" height="29" stroke="white" stroke-opacity="0.12"/>
<rect x="210.5" y="0.865234" width="29" height="29" stroke="white" stroke-opacity="0.12"/>
<rect x="240.5" y="0.865234" width="29" height="29" stroke="white" stroke-opacity="0.12"/>
<rect x="270.5" y="0.865234" width="29" height="29" stroke="white" stroke-opacity="0.12"/>
<rect x="0.5" y="30.8652" width="29" height="29" stroke="white" stroke-opacity="0.12"/>
<rect x="30.5" y="30.8652" width="29" height="29" stroke="white" stroke-opacity="0.12"/>
<rect x="60.5" y="30.8652" width="29" height="29" stroke="white" stroke-opacity="0.12"/>
<rect x="90.5" y="30.8652" width="29" height="29" stroke="white" stroke-opacity="0.12"/>
<rect x="120.5" y="30.8652" width="29" height="29" stroke="white" stroke-opacity="0.12"/>
<rect x="150.5" y="30.8652" width="29" height="29" stroke="white" stroke-opacity="0.12"/>
<rect x="180.5" y="30.8652" width="29" height="29" stroke="white" stroke-opacity="0.12"/>
<rect x="210.5" y="30.8652" width="29" height="29" stroke="white" stroke-opacity="0.12"/>
<rect x="240.5" y="30.8652" width="29" height="29" stroke="white" stroke-opacity="0.12"/>
<rect x="270.5" y="30.8652" width="29" height="29" stroke="white" stroke-opacity="0.12"/>
<rect x="0.5" y="60.8652" width="29" height="29" stroke="white" stroke-opacity="0.12"/>
<rect x="30.5" y="60.8652" width="29" height="29" stroke="white" stroke-opacity="0.12"/>
<rect x="60.5" y="60.8652" width="29" height="29" stroke="white" stroke-opacity="0.12"/>
<rect x="90.5" y="60.8652" width="29" height="29" stroke="white" stroke-opacity="0.12"/>
<rect x="120.5" y="60.8652" width="29" height="29" stroke="white" stroke-opacity="0.12"/>
<rect x="150.5" y="60.8652" width="29" height="29" stroke="white" stroke-opacity="0.12"/>
<rect x="180.5" y="60.8652" width="29" height="29" stroke="white" stroke-opacity="0.12"/>
<rect x="210.5" y="60.8652" width="29" height="29" stroke="white" stroke-opacity="0.12"/>
<rect x="240.5" y="60.8652" width="29" height="29" stroke="white" stroke-opacity="0.12"/>
<rect x="270.5" y="60.8652" width="29" height="29" stroke="white" stroke-opacity="0.12"/>
<rect x="0.5" y="90.8652" width="29" height="29" stroke="white" stroke-opacity="0.12"/>
<rect x="30.5" y="90.8652" width="29" height="29" stroke="white" stroke-opacity="0.12"/>
<rect x="60.5" y="90.8652" width="29" height="29" stroke="white" stroke-opacity="0.12"/>
<rect x="90.5" y="90.8652" width="29" height="29" stroke="white" stroke-opacity="0.12"/>
<rect x="120.5" y="90.8652" width="29" height="29" stroke="white" stroke-opacity="0.12"/>
<rect x="150.5" y="90.8652" width="29" height="29" stroke="white" stroke-opacity="0.12"/>
<rect x="180.5" y="90.8652" width="29" height="29" stroke="white" stroke-opacity="0.12"/>
<rect x="210.5" y="90.8652" width="29" height="29" stroke="white" stroke-opacity="0.12"/>
<rect x="240.5" y="90.8652" width="29" height="29" stroke="white" stroke-opacity="0.12"/>
<rect x="270.5" y="90.8652" width="29" height="29" stroke="white" stroke-opacity="0.12"/>
<rect x="0.5" y="120.865" width="29" height="29" stroke="white" stroke-opacity="0.12"/>
<rect x="30.5" y="120.865" width="29" height="29" stroke="white" stroke-opacity="0.12"/>
<rect x="60.5" y="120.865" width="29" height="29" stroke="white" stroke-opacity="0.12"/>
<rect x="90.5" y="120.865" width="29" height="29" stroke="white" stroke-opacity="0.12"/>
<rect x="120.5" y="120.865" width="29" height="29" stroke="white" stroke-opacity="0.12"/>
<rect x="150.5" y="120.865" width="29" height="29" stroke="white" stroke-opacity="0.12"/>
<rect x="180.5" y="120.865" width="29" height="29" stroke="white" stroke-opacity="0.12"/>
<rect x="210.5" y="120.865" width="29" height="29" stroke="white" stroke-opacity="0.12"/>
<rect x="240.5" y="120.865" width="29" height="29" stroke="white" stroke-opacity="0.12"/>
<rect x="270.5" y="120.865" width="29" height="29" stroke="white" stroke-opacity="0.12"/>
<rect x="0.5" y="150.865" width="29" height="29" stroke="white" stroke-opacity="0.12"/>
<rect x="30.5" y="150.865" width="29" height="29" stroke="white" stroke-opacity="0.12"/>
<rect x="60.5" y="150.865" width="29" height="29" stroke="white" stroke-opacity="0.12"/>
<rect x="90.5" y="150.865" width="29" height="29" stroke="white" stroke-opacity="0.12"/>
<rect x="120.5" y="150.865" width="29" height="29" stroke="white" stroke-opacity="0.12"/>
<rect x="150.5" y="150.865" width="29" height="29" stroke="white" stroke-opacity="0.12"/>
<rect x="180.5" y="150.865" width="29" height="29" stroke="white" stroke-opacity="0.12"/>
<rect x="210.5" y="150.865" width="29" height="29" stroke="white" stroke-opacity="0.12"/>
<rect x="240.5" y="150.865" width="29" height="29" stroke="white" stroke-opacity="0.12"/>
<rect x="270.5" y="150.865" width="29" height="29" stroke="white" stroke-opacity="0.12"/>
<rect x="0.5" y="180.865" width="29" height="29" stroke="white" stroke-opacity="0.12"/>
<rect x="30.5" y="180.865" width="29" height="29" stroke="white" stroke-opacity="0.12"/>
<rect x="60.5" y="180.865" width="29" height="29" stroke="white" stroke-opacity="0.12"/>
<rect x="90.5" y="180.865" width="29" height="29" stroke="white" stroke-opacity="0.12"/>
<rect x="120.5" y="180.865" width="29" height="29" stroke="white" stroke-opacity="0.12"/>
<rect x="150.5" y="180.865" width="29" height="29" stroke="white" stroke-opacity="0.12"/>
<rect x="180.5" y="180.865" width="29" height="29" stroke="white" stroke-opacity="0.12"/>
<rect x="210.5" y="180.865" width="29" height="29" stroke="white" stroke-opacity="0.12"/>
<rect x="240.5" y="180.865" width="29" height="29" stroke="white" stroke-opacity="0.12"/>
<rect x="270.5" y="180.865" width="29" height="29" stroke="white" stroke-opacity="0.12"/>
<rect x="0.5" y="210.865" width="29" height="29" stroke="white" stroke-opacity="0.12"/>
<rect x="30.5" y="210.865" width="29" height="29" stroke="white" stroke-opacity="0.12"/>
<rect x="60.5" y="210.865" width="29" height="29" stroke="white" stroke-opacity="0.12"/>
<rect x="90.5" y="210.865" width="29" height="29" stroke="white" stroke-opacity="0.12"/>
<rect x="120.5" y="210.865" width="29" height="29" stroke="white" stroke-opacity="0.12"/>
<rect x="150.5" y="210.865" width="29" height="29" stroke="white" stroke-opacity="0.12"/>
<rect x="180.5" y="210.865" width="29" height="29" stroke="white" stroke-opacity="0.12"/>
<rect x="210.5" y="210.865" width="29" height="29" stroke="white" stroke-opacity="0.12"/>
<rect x="240.5" y="210.865" width="29" height="29" stroke="white" stroke-opacity="0.12"/>
<rect x="270.5" y="210.865" width="29" height="29" stroke="white" stroke-opacity="0.12"/>
</svg>
